<svg aria-hidden="true" style="width:0;height:0;position:absolute;overflow:hidden" xmlns="http://www.w3.org/2000/svg"><defs><symbol id="icon-pencil" viewBox="0 0 32 32"><path d="M20.109 29.113h-4.101v.719c0 1.082.879 1.96 1.96 1.96h7.665c1.081 0 1.96-.879 1.96-1.96V1.994c0-1.081-.879-1.96-1.96-1.96h-7.665c-1.081 0-1.96.879-1.96 1.96v.719h4.101a.979.979 0 1 1 0 1.96h-4.101v1.983h2.078a.979.979 0 1 1 0 1.96h-2.078v2.156h2.078a.979.979 0 1 1 0 1.96h-2.078v2.156h4.101a.979.979 0 1 1 0 1.96h-4.101v2.111h2.078a.979.979 0 1 1 0 1.96h-2.078v2.156h2.078a.979.979 0 1 1 0 1.96h-2.078v2.111h4.101a.982.982 0 0 1 0 1.963zM7.32 31.71a.607.607 0 0 0 1.055-.036l2.261-4.47c.007-.013.01-.023.016-.036H4.607l.033.062 2.679 4.48zM9.137 0H5.958C5.19 0 4.406.771 4.406 1.523l.007 2.764h6.283l-.007-2.761C10.689.775 9.905 0 9.137 0zM10.702 6.251H4.419l.052 18.957h6.287z"/></symbol><symbol id="icon-phone" viewBox="0 0 32 32"><path d="M14.43 1.362a.094.094 0 1 1-.188 0 .094.094 0 0 1 .188 0zM14.706 1.362a.094.094 0 1 1-.188 0 .094.094 0 0 1 .188 0zM14.981 1.362a.094.094 0 1 1-.188 0 .094.094 0 0 1 .188 0zM15.256 1.362a.094.094 0 1 1-.188 0 .094.094 0 0 1 .188 0zM15.532 1.362a.094.094 0 1 1-.188 0 .094.094 0 0 1 .188 0zM15.808 1.362a.094.094 0 1 1-.188 0 .094.094 0 0 1 .188 0zM16.084 1.362a.094.094 0 1 1-.188 0 .094.094 0 0 1 .188 0zM16.359 1.362a.094.094 0 1 1-.188 0 .094.094 0 0 1 .188 0zM16.634 1.362a.094.094 0 1 1-.188 0 .094.094 0 0 1 .188 0zM16.912 1.362a.094.094 0 1 1-.188 0 .094.094 0 0 1 .188 0zM17.187 1.362a.094.094 0 1 1-.188 0 .094.094 0 0 1 .188 0zM17.462 1.362a.094.094 0 1 1-.188 0 .094.094 0 0 1 .188 0zM17.738 1.362a.094.094 0 1 1-.188 0 .094.094 0 0 1 .188 0zM18.014 1.362a.094.094 0 1 1-.188 0 .094.094 0 0 1 .188 0z"/><path d="M23.092 0H8.908a2.075 2.075 0 0 0-2.075 2.075v27.849c0 1.146.929 2.075 2.075 2.075h14.184a2.075 2.075 0 0 0 2.075-2.075V2.075A2.074 2.074 0 0 0 23.092 0zm-1.451 1.232c.126 0 .229.103.229.229s-.103.229-.229.229a.229.229 0 1 1 0-.458zm-8.096-.197h5.126a.327.327 0 1 1 0 .654h-5.126a.327.327 0 1 1 0-.654zm-2.091 29.6h-.505c-.034 0-.061-.028-.061-.061s.027-.061.061-.061h.505c.034 0 .061.028.061.061s-.028.061-.061.061zm0-.246h-.505c-.034 0-.061-.027-.061-.061s.027-.061.061-.061h.505c.034 0 .061.028.061.061s-.028.061-.061.061zm.425.16c0 .073-.058.132-.131.132s-.132-.059-.132-.132v-.433h-.83v.433a.131.131 0 1 1-.262 0v-.564c0-.072.059-.131.131-.131h1.093c.072 0 .131.059.131.131v.564zm5.764-.041a.52.52 0 0 1-.519.519h-2.27a.519.519 0 0 1-.519-.519v-.454c0-.287.232-.519.519-.519h2.27c.287 0 .519.232.519.519v.454zm3.389.197h-.412a.132.132 0 0 1 0-.263h.412c.089 0 .161-.069.161-.154s-.072-.153-.161-.153h-.347c-.013.018-.029.027-.058.029-.007.004-.02-.002-.029-.006l-.214-.09c-.026-.011-.043-.037-.043-.065s.017-.054.043-.065l.214-.09a.07.07 0 0 1 .085.024h.35c.233 0 .423.187.423.416s-.189.416-.423.416zm2.752-1.818H8.044V3.2h15.74v25.687z"/></symbol><symbol id="icon-production" viewBox="0 0 32 32"><path d="M4.341 8.034c-1.1 0-1.994.895-1.994 1.994s.895 1.994 1.994 1.994 1.994-.895 1.994-1.994c0-1.1-.895-1.994-1.994-1.994zm0 3.034a1.04 1.04 0 1 1 .002-2.08 1.04 1.04 0 0 1-.002 2.08zM19.348 22.838c1.324 0 2.402-1.077 2.402-2.402s-1.077-2.402-2.402-2.402c-1.324 0-2.402 1.077-2.402 2.402s1.077 2.402 2.402 2.402zm0-3.849c.798 0 1.447.649 1.447 1.447s-.649 1.447-1.447 1.447-1.447-.649-1.447-1.447.649-1.447 1.447-1.447z"/><path d="M29.362 26.689h-4.517l-1.255-3.715a4.957 4.957 0 0 0-1.996-6.96l-11.08-5.662 5.839-4.174c1.975.662 1.882.661 2.023.661.537 0 .663-.756.154-.929-2.153-.867-3.285-.744-3.803-1.929-.702-1.606 1.048-3.224 2.6-2.35l5.995 3.377-.979 2.199-1.991-.677c-.598-.204-.906.7-.307.904l2.006.682c.012.439.299.814.702.951l.873.297c.333.113.684.05.949-.146l1.224 1.408a.877.877 0 0 0 .662.303c.396 0 .549-.22 1.363-.678.54-.327.045-1.144-.495-.816l-.852.517L25.1 8.368l.905-2.033 2.127.012.163.983c.105.634 1.045.462.942-.157l-.174-1.046a.878.878 0 0 0-.861-.735l-1.869-.011a1.032 1.032 0 0 0-.529-.904l-.803-.453a1.035 1.035 0 0 0-1.218.149L17.796.801a2.803 2.803 0 0 0-3.556.682l-9.739 4.21a4.346 4.346 0 0 0-4.499 4.339c0 2.796 2.626 4.884 5.365 4.219l9.649 8.929-1.187 3.512h-1.361c-.631 0-.632.955 0 .955h16.896c.928 0 1.683.755 1.683 1.683v1.083a.184.184 0 0 1-.184.184H8.419a.185.185 0 0 1-.184-.184V29.33c0-.928.755-1.683 1.683-1.683h.64c.631 0 .632-.955 0-.955h-.64A2.64 2.64 0 0 0 7.28 29.33v1.083a1.14 1.14 0 0 0 1.139 1.139h22.444a1.14 1.14 0 0 0 1.139-1.139V29.33a2.64 2.64 0 0 0-2.638-2.638zM24.53 4.854l.804.453a.08.08 0 0 1 .034.104L24.03 8.416a.08.08 0 0 1-.1.044l-.873-.297c-.059-.022-.06-.083-.048-.11l1.407-3.16c.012-.027.039-.077.114-.038zM13.655 2.772a2.802 2.802 0 0 0 1.599 3.017L9.556 9.862l-.92-.47a4.354 4.354 0 0 0-2.561-3.344zm-12.7 7.256c0-1.867 1.519-3.387 3.386-3.387s3.387 1.519 3.387 3.387-1.519 3.386-3.387 3.386a3.39 3.39 0 0 1-3.386-3.386zm7.705.449 12.499 6.387a4.002 4.002 0 1 1-4.538 6.5L6.363 13.871a4.348 4.348 0 0 0 2.297-3.393zm7.121 13.41c.09.058 1.594 1.735 4.087 1.467a4.955 4.955 0 0 0 3.02-1.47l.948 2.805h-9.002z"/></symbol><symbol id="icon-delivery" viewBox="0 0 45 32"><path d="M11.812 27.679H1.121v-9.688l5.677-4.129h5.014z"/><path style="fill:var(--color2,teal)" d="M11.812 27.119H1.121c.177.192.369.369.546.56v-9.688a5.012 5.012 0 0 1-.28.472c1.77-1.298 3.539-2.581 5.324-3.878.029-.03.324-.206.324-.236 0 .088-.398-.015-.118.059.472.103 1.091 0 1.578 0h3.303c.708 0 .708-1.106 0-1.106-1.607 0-3.215-.044-4.822 0-.457.015-.678.221-1.032.487l-2.271 1.652-2.271 1.652c-.369.265-.782.457-.841.944-.059.56 0 1.15 0 1.711V27.653c0 .295.251.56.56.56h10.691c.708.015.708-1.091 0-1.091z"/><path d="m4.041 18.964 2.05-1.858h3.628v5.648h-5.84z"/><path style="fill:var(--color2,teal)" d="M4.439 19.347c.678-.619 1.371-1.239 2.05-1.843-.133.059-.265.103-.398.162h3.628a20.305 20.305 0 0 1-.546-.56v5.633c.192-.192.369-.369.546-.56h-5.84l.56.56c.059-1.268.118-2.522.162-3.79.029-.708-1.077-.708-1.106 0-.059 1.268-.118 2.522-.162 3.79-.015.295.265.56.56.56h5.84a.57.57 0 0 0 .56-.56v-5.633a.57.57 0 0 0-.56-.56c-1.165 0-2.418-.133-3.583 0-.472.059-.811.501-1.15.811-.442.398-.885.811-1.342 1.209-.531.487.251 1.268.782.782z"/><path d="M9.497 28.166a2.506 2.506 0 1 1-5.013.001 2.506 2.506 0 0 1 5.013-.001z"/><path style="fill:var(--color2,teal)" d="M8.936 28.166c-.044 1.062-.855 1.947-1.947 1.947-1.062 0-1.947-.885-1.947-1.947s.885-1.961 1.947-1.947c1.091 0 1.902.87 1.947 1.947.03.708 1.135.708 1.106 0-.074-1.666-1.342-3.053-3.053-3.053-1.652 0-3.067 1.401-3.053 3.053 0 1.666 1.386 3.053 3.053 3.053 1.711 0 2.994-1.401 3.053-3.053.03-.723-1.076-.723-1.106 0z"/><path d="M11.812 10.101h27.635v17.725H11.812V10.101z"/><path style="fill:var(--color2,teal)" d="M39.447 27.266H11.812l.56.56V10.115l-.56.56H39.447l-.56-.56V27.826c0 .708 1.106.708 1.106 0V10.115a.57.57 0 0 0-.56-.56H11.798a.57.57 0 0 0-.56.56V27.826c0 .295.251.56.56.56H39.433c.723-.015.723-1.121.015-1.121z"/><path d="M36.011 28.417a2.506 2.506 0 1 1-5.013.001 2.506 2.506 0 0 1 5.013-.001z"/><path style="fill:var(--color2,teal)" d="M35.451 28.417c-.044 1.062-.855 1.947-1.947 1.947-1.062 0-1.947-.885-1.947-1.947s.885-1.961 1.947-1.947c1.091 0 1.902.885 1.947 1.947.029.708 1.135.708 1.106 0-.074-1.666-1.342-3.053-3.053-3.053-1.652 0-3.067 1.401-3.053 3.053 0 1.666 1.386 3.053 3.053 3.053 1.711 0 2.994-1.401 3.053-3.053.029-.708-1.077-.708-1.106 0z"/><path style="fill:var(--color2,teal)" d="M32.074 24.863h-8.45c-.708 0-.708 1.106 0 1.106h8.45c.723 0 .723-1.106 0-1.106z"/><path d="M29.287 6.238A6.24 6.24 0 0 0 25.866.664v6.562h-5.677V.944c-1.755 1.106-3.421 3.067-3.421 5.294a6.27 6.27 0 0 0 3.923 5.81v17.637a1.51 1.51 0 0 0 1.504 1.504h1.666a1.51 1.51 0 0 0 1.504-1.504V12.048c2.286-.929 3.923-3.185 3.923-5.81z"/><path style="fill:var(--color2,teal)" d="M29.832 6.238c-.044-2.566-1.43-4.852-3.701-6.061-.369-.192-.826.044-.826.472v6.577l.56-.56h-5.677l.56.56V.944c0-.398-.472-.708-.826-.472-2.212 1.43-3.967 3.775-3.657 6.533a6.857 6.857 0 0 0 4.159 5.53 5.012 5.012 0 0 0-.28-.472v17.091c0 .28-.015.56.029.826.162 1.15 1.121 1.755 2.212 1.784.87.015 1.932.147 2.684-.383.605-.428.841-1.076.855-1.799.059-2.846 0-5.692 0-8.538v-8.966a5.012 5.012 0 0 1-.28.472c2.536-1.106 4.144-3.569 4.188-6.312.015-.708-1.091-.708-1.106 0-.044 2.389-1.46 4.409-3.657 5.338-.177.074-.28.31-.28.472v16.487c0 .973.162 2.065-1.18 2.094-.87.029-2.256.236-2.389-.944-.015-.177 0-.369 0-.546V12.048c0-.177-.103-.398-.28-.472-1.902-.811-3.303-2.463-3.598-4.542-.324-2.374 1.194-4.365 3.097-5.604-.28-.162-.56-.324-.826-.472V7.24c0 .295.251.56.56.56h5.677a.57.57 0 0 0 .56-.56V.663c-.28.162-.56.324-.826.472 1.932 1.017 3.112 2.92 3.156 5.102 0 .708 1.106.708 1.091 0zM11.252 13.862V27.68c0 .708 1.106.708 1.106 0V13.862c0-.708-1.106-.708-1.106 0z"/><path d="m33.489 17.239-3.849-4.911s-1.017-.811-1.563-.383c-.31.236-3.274 3.097-3.274 3.097s-.605 1.475 0 2.197c.605.723 1.681.044 2.669-.708s1.519-1.091 1.519-1.091l4.498 1.799z"/><path d="M33.873 16.841c-.752-.944-1.489-1.902-2.241-2.846-.619-.782-1.209-1.888-2.109-2.389-.708-.383-1.386-.457-2.006.088-.59.516-1.15 1.076-1.711 1.607-.442.428-.988.841-1.386 1.327-.383.457-.487 1.268-.457 1.843.059 1.327 1.18 1.917 2.359 1.416 1.076-.457 1.947-1.342 2.935-1.961-.147.015-.28.044-.428.059 1.504.59 2.994 1.194 4.498 1.784.664.265.944-.811.295-1.062-1.312-.516-2.625-1.047-3.937-1.563-.546-.221-.811-.295-1.312.059-.546.383-1.076.796-1.622 1.18-.605.413-1.74 1.106-1.681-.162.015-.236.074-.472.133-.693.015-.059.074-.162.074-.236.015-.192.221.044-.103.147.162-.044.383-.369.501-.487.678-.649 1.342-1.298 2.035-1.932.162-.147.457-.56.678-.619.251-.074.737.221.944.413-.221-.192.088.162.133.221l.664.841a644.88 644.88 0 0 1 2.949 3.76c.457.546 1.239-.236.796-.796z"/><path style="fill:var(--color2,teal)" d="M33.902 16.841c-.752-.944-1.489-1.902-2.241-2.846-.619-.782-1.209-1.888-2.109-2.389-.708-.383-1.386-.457-2.006.088-.59.516-1.15 1.076-1.711 1.607-.442.428-.988.841-1.386 1.327-.383.457-.487 1.268-.457 1.843.059 1.327 1.18 1.917 2.359 1.416 1.076-.457 1.947-1.342 2.935-1.961.605-.383.044-1.342-.56-.959-.634.398-1.224.885-1.843 1.327-.339.251-1.135.9-1.563.619-.369-.251-.206-.9-.118-1.268.029-.103.103-.251.118-.369.015-.192-.044.133-.088.133.088-.015.265-.265.339-.324.487-.457.959-.929 1.445-1.386.398-.383.841-.959 1.327-1.239.221-.133.324-.088.605.059.118.059.251.133.354.221.162.118-.044-.044 0 0 .649.723 1.209 1.548 1.814 2.315.664.855 1.342 1.711 2.006 2.566.428.56 1.209-.221.782-.782z"/><path d="m17.784 13.523 3.731.339s1.416.059 1.711.826.221 1.681-.457 1.932c-.678.251-6.267.088-6.651 0-.369-.088.693-2.669 1.666-3.097z"/><path style="fill:var(--color2,teal)" d="M17.784 14.083c.914.088 1.843.162 2.758.251.649.059 1.947-.015 2.212.693.236.634.029 1.077-.59 1.121-.575.044-1.15.044-1.725.044-1.253 0-2.507-.015-3.746-.088-.088 0-.206-.029-.295-.015-.177.015-.103-.029-.103 0-.029.088.31.31.31.324.015 0 .015-.133.029-.133.074-.118.088-.31.133-.428.251-.649.649-1.519 1.298-1.843.634-.324.074-1.268-.56-.959-.737.369-1.239 1.209-1.578 1.947-.236.501-.708 1.43-.28 1.947.295.354.944.28 1.357.295.855.044 1.711.059 2.566.074.811.015 1.622.015 2.433-.029.619-.044 1.253-.088 1.637-.664.501-.752.383-2.035-.28-2.654-.501-.457-1.209-.575-1.858-.634-1.239-.118-2.492-.221-3.731-.339-.693-.088-.693 1.018.015 1.091z"/><path d="M38.533 26.19h-5.559V14.039h5.441z"/><path style="fill:var(--color2,teak)" d="M38.533 25.63h-5.574l.56.56V14.039l-.56.56H38.4c.708 0 .708-1.106 0-1.106h-5.441a.57.57 0 0 0-.56.56v12.151c0 .295.251.56.56.56h5.574c.723-.029.723-1.135 0-1.135z"/><path d="m16.133 16.619 6.267.133s1.091.28 1.091 1.283-.029 1.504-.708 1.666c-.678.162-6.326.339-6.326.339s-.752-.664-.752-1.711c0-1.047.428-1.711.428-1.711z"/><path fill="#1d1e1d" style="fill:var(--color3,teal)" d="M16.133 17.165c1.947.044 3.908.088 5.854.118.118 0 .236 0 .354.015s-.044 0-.074-.015c.044.015.118.029.162.059.28.221.457.295.516.693.044.265.059.885-.162 1.091-.206.177-.826.118-1.135.147a81.8 81.8 0 0 1-1.961.103c-1.076.044-2.138.088-3.215.118.133.059.265.103.398.162-.737-.678-.737-1.917-.236-2.758.369-.605-.59-1.165-.959-.56-.516.855-.664 2.065-.31 2.994.206.546.575 1.209 1.209 1.253 1.593.103 3.288-.103 4.881-.206.59-.029 1.357 0 1.888-.31.811-.472.9-1.888.59-2.684-.516-1.342-1.873-1.209-3.038-1.239-1.578-.029-3.171-.074-4.748-.103-.737 0-.737 1.106-.015 1.121z"/><path d="m16.693 20.055 5.648-.251s1.504.133 1.725.973-.103 1.829-.575 1.976c-1.445.487-3.2.472-3.2.472h-3.023s-1.607-1.504-.575-3.171z"/><path fill="#1d1e1d" style="fill:var(--color3,teal)" d="M16.693 20.601c1.091-.044 2.168-.103 3.259-.147.811-.029 1.991-.221 2.64-.059.339.088.767.177.944.516.133.251.059.708-.029.959-.133.354-.265.398-.619.487-.826.221-1.711.31-2.581.31-1.018.015-2.02 0-3.038 0 .133.059.265.103.398.162-.693-.664-.973-1.637-.487-2.507.339-.619-.605-1.18-.959-.56-.546.988-.531 2.065.044 3.053.265.457.56.914 1.121.959 1.194.118 2.492.044 3.687-.029.973-.074 2.595-.088 3.215-.973.531-.767.619-2.123-.088-2.802-.855-.841-2.065-.708-3.156-.664-1.445.059-2.905.133-4.35.192-.723.029-.723 1.135 0 1.106z"/><path d="M17.209 23.137s6.341-.31 6.665.428.177 1.489-.147 1.814c-.487.487-.973.428-2.713.501s-3.406 0-3.731-.678c-.531-1.121-.074-2.065-.074-2.065z"/><path fill="#1d1e1d" style="fill:var(--color3,teal)" d="M17.209 23.683c1.888-.088 3.982-.265 5.854.118.118.029.339.044.413.118.088.088.044.9-.162 1.106-.383.369-1.194.265-1.666.28-1.062.044-2.227.177-3.274-.088-.56-.133-.723-.383-.782-.973-.015-.192 0-.398.029-.59.015-.044.147-.428.059-.251.28-.649-.664-1.209-.959-.56a3.086 3.086 0 0 0-.162 1.991c.221.855.752 1.283 1.593 1.46 1.135.236 2.315.147 3.465.103.649-.029 1.416.015 2.006-.295 1.076-.56 1.46-2.669.206-3.244-1.018-.457-2.418-.354-3.51-.369a55.78 55.78 0 0 0-3.141.059c-.678.059-.693 1.165.029 1.135z"/><path style="fill:var(--color2,teal)" d="M44.667 22.341h-7.3c-.708 0-.708 1.106 0 1.106h7.3c.708 0 .708-1.106 0-1.106zM36.557 21.029h7.3c.708 0 .708-1.106 0-1.106h-7.3c-.708 0-.708 1.106 0 1.106zM43.06 17.519h-7.3c-.708 0-.708 1.106 0 1.106h7.3c.708 0 .708-1.106 0-1.106z"/></symbol><symbol id="icon-phone-contact" viewBox="0 0 24 24"><path d="M6.609 10.781q2.25 4.359 6.609 6.609l2.203-2.203q.469-.469 1.031-.234 1.688.563 3.563.563.422 0 .703.281t.281.703v3.516q0 .422-.281.703t-.703.281q-7.031 0-12.023-4.992T3 3.985q0-.422.281-.703t.703-.281H7.5q.422 0 .703.281t.281.703q0 1.875.563 3.563.188.609-.234 1.031z"/></symbol><symbol id="icon-mail" viewBox="0 0 24 24"><path d="M12 11.016 20.016 6H3.985zM20.016 18V8.016L12 12.985 3.984 8.016V18h16.031zm0-14.016q.797 0 1.383.609t.586 1.406v12q0 .797-.586 1.406t-1.383.609H3.985q-.797 0-1.383-.609t-.586-1.406v-12q0-.797.586-1.406t1.383-.609h16.031z"/></symbol><symbol id="icon-telegram" viewBox="0 0 32 32"><path d="M26.831 4.25c-.347.015-.67.116-.954.231-.266.107-1.284.544-2.887 1.231-1.605.688-3.729 1.6-5.996 2.575-4.533 1.949-9.629 4.144-12.24 5.267-.098.042-.441.152-.804.435s-.75.872-.75 1.527c0 .528.252 1.053.569 1.367s.652.468.94.585c1.042.425 4.275 1.748 4.885 1.998.215.658 1.385 4.237 1.656 5.115.179.579.349.941.571 1.229.111.144.24.27.396.369.062.04.131.07.2.098l.004.002c.016.006.03.017.046.023.03.011.051.012.092.021.162.052.327.085.473.085.624 0 1.006-.344 1.006-.344l.023-.017 3.21-2.777 3.894 3.683c.055.078.566.779 1.694.779.67 0 1.201-.336 1.542-.694s.553-.734.644-1.206v-.002c.084-.447 3.673-18.869 3.673-18.869l-.006.025c.105-.479.133-.926.017-1.367s-.421-.863-.8-1.09a1.912 1.912 0 0 0-1.096-.281zm-.2 2.229c-.005.031.004.015-.004.052l-.004.025s-3.544 18.187-3.675 18.879c.01-.052-.034.052-.079.115-.064-.044-.194-.1-.194-.1l-.021-.023-5.319-5.031-3.76 3.25 1.119-4.479s6.993-7.239 7.415-7.66c.339-.337.41-.455.41-.571 0-.156-.081-.269-.262-.269-.163 0-.383.159-.5.233-1.529.974-8.24 4.886-11.248 6.635L5.584 15.52l.015-.006c2.611-1.123 7.705-3.318 12.238-5.267 2.266-.975 4.392-1.887 5.996-2.575a513.167 513.167 0 0 1 2.8-1.194z"/></symbol><symbol id="icon-viber" viewBox="0 0 32 32"><path d="M15.633 1.92c-.873.005-1.748.058-2.63.165-1.688.208-3.36.553-4.965 1.29C5.485 4.548 3.676 6.537 3.15 9.43a38.056 38.056 0 0 0-.505 3.703c-.197 2.418-.075 4.843.61 7.225.54 1.878 1.535 3.565 3.277 4.66.737.462 1.71.688 2.217.922.143.067.178.108.185.117.008.008.027.025.025.175-.018 1.53 0 4.49 0 4.49l.002.637h1.143l.185-.18s2.902-2.793 3.953-3.942c.19-.205.287-.32.307-.332.018-.012-.012-.02.182-.025 1.377-.027 2.752-.08 4.127-.155 1.813-.1 3.66-.273 5.438-1.015 1.547-.648 2.84-1.705 3.622-3.29.8-1.625 1.227-3.348 1.387-5.13.265-2.967.172-5.94-.648-8.87-.483-1.718-1.453-3.17-2.94-4.195C23.937 3 21.929 2.54 19.964 2.247a29.77 29.77 0 0 0-3.462-.317c-.29-.008-.58-.012-.873-.01zm.837 1.29c1.102.03 2.205.138 3.31.303 1.895.282 3.683.713 5.215 1.768 1.242.855 2.017 2.01 2.433 3.482.765 2.74.863 5.547.605 8.415-.148 1.652-.54 3.21-1.262 4.677-.637 1.295-1.633 2.117-2.968 2.675-1.55.648-3.235.82-5.01.918-1.36.075-2.723.125-4.085.152-.342.008-.678.098-.915.273s-.345.337-.492.497c-.75.82-2.245 2.262-3.06 3.053-.005-.955-.012-2.11 0-3.175.005-.328-.07-.663-.258-.927s-.445-.425-.693-.54c-.723-.335-1.668-.59-2.078-.848-1.433-.9-2.245-2.25-2.728-3.93-.632-2.198-.752-4.46-.565-6.762.1-1.195.273-2.393.49-3.58.455-2.502 1.885-4.077 4.16-5.122 1.438-.66 2.973-.985 4.59-1.183a21.821 21.821 0 0 1 3.31-.145zm.27 3.19c-.527 0-1.04.06-1.537.17a.641.641 0 0 0 .286 1.25c.402-.093.822-.14 1.252-.14a5.635 5.635 0 0 1 5.645 5.643c0 .432-.047.852-.14 1.258a.64.64 0 1 0 1.248.28 6.89 6.89 0 0 0 .172-1.537c0-3.815-3.108-6.923-6.925-6.923zm-6.385 1.283a1.257 1.257 0 0 0-.325.027c-1.162.258-2.317 1.1-2.35 2.605.032.21.03.435.107.625.38.93.71 1.89 1.185 2.77 2.313 4.275 5.81 7.248 10.268 9.135.532.225 1.082.273 1.62.047.74-.308 1.367-.782 1.785-1.465.573-.938.58-1.587-.363-2.28-.617-.455-1.225-.922-1.85-1.367-.953-.675-1.982-.793-2.692.392-.038.06-.093.11-.14.16-.365.387-.813.483-1.288.288-1.803-.742-3.195-1.94-4.035-3.723-.495-1.047-.36-1.572.565-2.27.092-.068.18-.14.265-.217.405-.37.512-.81.273-1.307a10.236 10.236 0 0 0-2.18-3.02c-.248-.235-.53-.383-.845-.4zm6.375.637a4.98 4.98 0 0 0-.838.07.643.643 0 0 0-.408 1.05c.152.178.393.26.622.21.2-.033.41-.05.622-.05 2.08 0 3.75 1.67 3.75 3.75 0 .213-.017.422-.05.623-.05.23.032.47.21.623a.64.64 0 0 0 1.05-.408 5.04 5.04 0 0 0-4.96-5.868zm-.09 1.92a.645.645 0 0 0-.563.318.646.646 0 0 0 0 .645c.117.2.332.32.563.318 1.067 0 1.92.853 1.92 1.92a.644.644 0 0 0 .317.563.641.641 0 0 0 .962-.563c0-1.76-1.44-3.2-3.2-3.2z"/></symbol></defs></svg>