<svg aria-hidden="true" style="width:0;height:0;position:absolute;overflow:hidden" xmlns="http://www.w3.org/2000/svg"><defs><symbol id="icon-pencil" viewBox="0 0 32 32"><path d="M20.109 29.113h-4.101v.719c0 1.082.879 1.96 1.96 1.96h7.665c1.081 0 1.96-.879 1.96-1.96V1.994c0-1.081-.879-1.96-1.96-1.96h-7.665c-1.081 0-1.96.879-1.96 1.96v.719h4.101a.979.979 0 1 1 0 1.96h-4.101v1.983h2.078a.979.979 0 1 1 0 1.96h-2.078v2.156h2.078a.979.979 0 1 1 0 1.96h-2.078v2.156h4.101a.979.979 0 1 1 0 1.96h-4.101v2.111h2.078a.979.979 0 1 1 0 1.96h-2.078v2.156h2.078a.979.979 0 1 1 0 1.96h-2.078v2.111h4.101a.982.982 0 0 1 0 1.963zM7.32 31.71a.607.607 0 0 0 1.055-.036l2.261-4.47c.007-.013.01-.023.016-.036H4.607l.033.062 2.679 4.48zM9.137 0H5.958C5.19 0 4.406.771 4.406 1.523l.007 2.764h6.283l-.007-2.761C10.689.775 9.905 0 9.137 0zM10.702 6.251H4.419l.052 18.957h6.287z"/></symbol><symbol id="icon-phone" viewBox="0 0 32 32"><path d="M14.43 1.362a.094.094 0 1 1-.188 0 .094.094 0 0 1 .188 0zM14.706 1.362a.094.094 0 1 1-.188 0 .094.094 0 0 1 .188 0zM14.981 1.362a.094.094 0 1 1-.188 0 .094.094 0 0 1 .188 0zM15.256 1.362a.094.094 0 1 1-.188 0 .094.094 0 0 1 .188 0zM15.532 1.362a.094.094 0 1 1-.188 0 .094.094 0 0 1 .188 0zM15.808 1.362a.094.094 0 1 1-.188 0 .094.094 0 0 1 .188 0zM16.084 1.362a.094.094 0 1 1-.188 0 .094.094 0 0 1 .188 0zM16.359 1.362a.094.094 0 1 1-.188 0 .094.094 0 0 1 .188 0zM16.634 1.362a.094.094 0 1 1-.188 0 .094.094 0 0 1 .188 0zM16.912 1.362a.094.094 0 1 1-.188 0 .094.094 0 0 1 .188 0zM17.187 1.362a.094.094 0 1 1-.188 0 .094.094 0 0 1 .188 0zM17.462 1.362a.094.094 0 1 1-.188 0 .094.094 0 0 1 .188 0zM17.738 1.362a.094.094 0 1 1-.188 0 .094.094 0 0 1 .188 0zM18.014 1.362a.094.094 0 1 1-.188 0 .094.094 0 0 1 .188 0z"/><path d="M23.092 0H8.908a2.075 2.075 0 0 0-2.075 2.075v27.849c0 1.146.929 2.075 2.075 2.075h14.184a2.075 2.075 0 0 0 2.075-2.075V2.075A2.074 2.074 0 0 0 23.092 0zm-1.451 1.232c.126 0 .229.103.229.229s-.103.229-.229.229a.229.229 0 1 1 0-.458zm-8.096-.197h5.126a.327.327 0 1 1 0 .654h-5.126a.327.327 0 1 1 0-.654zm-2.091 29.6h-.505c-.034 0-.061-.028-.061-.061s.027-.061.061-.061h.505c.034 0 .061.028.061.061s-.028.061-.061.061zm0-.246h-.505c-.034 0-.061-.027-.061-.061s.027-.061.061-.061h.505c.034 0 .061.028.061.061s-.028.061-.061.061zm.425.16c0 .073-.058.132-.131.132s-.132-.059-.132-.132v-.433h-.83v.433a.131.131 0 1 1-.262 0v-.564c0-.072.059-.131.131-.131h1.093c.072 0 .131.059.131.131v.564zm5.764-.041a.52.52 0 0 1-.519.519h-2.27a.519.519 0 0 1-.519-.519v-.454c0-.287.232-.519.519-.519h2.27c.287 0 .519.232.519.519v.454zm3.389.197h-.412a.132.132 0 0 1 0-.263h.412c.089 0 .161-.069.161-.154s-.072-.153-.161-.153h-.347c-.013.018-.029.027-.058.029-.007.004-.02-.002-.029-.006l-.214-.09c-.026-.011-.043-.037-.043-.065s.017-.054.043-.065l.214-.09a.07.07 0 0 1 .085.024h.35c.233 0 .423.187.423.416s-.189.416-.423.416zm2.752-1.818H8.044V3.2h15.74v25.687z"/></symbol><symbol id="icon-production" viewBox="0 0 32 32"><path d="M4.341 8.034c-1.1 0-1.994.895-1.994 1.994s.895 1.994 1.994 1.994 1.994-.895 1.994-1.994c0-1.1-.895-1.994-1.994-1.994zm0 3.034a1.04 1.04 0 1 1 .002-2.08 1.04 1.04 0 0 1-.002 2.08zM19.348 22.838c1.324 0 2.402-1.077 2.402-2.402s-1.077-2.402-2.402-2.402c-1.324 0-2.402 1.077-2.402 2.402s1.077 2.402 2.402 2.402zm0-3.849c.798 0 1.447.649 1.447 1.447s-.649 1.447-1.447 1.447-1.447-.649-1.447-1.447.649-1.447 1.447-1.447z"/><path d="M29.362 26.689h-4.517l-1.255-3.715a4.957 4.957 0 0 0-1.996-6.96l-11.08-5.662 5.839-4.174c1.975.662 1.882.661 2.023.661.537 0 .663-.756.154-.929-2.153-.867-3.285-.744-3.803-1.929-.702-1.606 1.048-3.224 2.6-2.35l5.995 3.377-.979 2.199-1.991-.677c-.598-.204-.906.7-.307.904l2.006.682c.012.439.299.814.702.951l.873.297c.333.113.684.05.949-.146l1.224 1.408a.877.877 0 0 0 .662.303c.396 0 .549-.22 1.363-.678.54-.327.045-1.144-.495-.816l-.852.517L25.1 8.368l.905-2.033 2.127.012.163.983c.105.634 1.045.462.942-.157l-.174-1.046a.878.878 0 0 0-.861-.735l-1.869-.011a1.032 1.032 0 0 0-.529-.904l-.803-.453a1.035 1.035 0 0 0-1.218.149L17.796.801a2.803 2.803 0 0 0-3.556.682l-9.739 4.21a4.346 4.346 0 0 0-4.499 4.339c0 2.796 2.626 4.884 5.365 4.219l9.649 8.929-1.187 3.512h-1.361c-.631 0-.632.955 0 .955h16.896c.928 0 1.683.755 1.683 1.683v1.083a.184.184 0 0 1-.184.184H8.419a.185.185 0 0 1-.184-.184V29.33c0-.928.755-1.683 1.683-1.683h.64c.631 0 .632-.955 0-.955h-.64A2.64 2.64 0 0 0 7.28 29.33v1.083a1.14 1.14 0 0 0 1.139 1.139h22.444a1.14 1.14 0 0 0 1.139-1.139V29.33a2.64 2.64 0 0 0-2.638-2.638zM24.53 4.854l.804.453a.08.08 0 0 1 .034.104L24.03 8.416a.08.08 0 0 1-.1.044l-.873-.297c-.059-.022-.06-.083-.048-.11l1.407-3.16c.012-.027.039-.077.114-.038zM13.655 2.772a2.802 2.802 0 0 0 1.599 3.017L9.556 9.862l-.92-.47a4.354 4.354 0 0 0-2.561-3.344zm-12.7 7.256c0-1.867 1.519-3.387 3.386-3.387s3.387 1.519 3.387 3.387-1.519 3.386-3.387 3.386a3.39 3.39 0 0 1-3.386-3.386zm7.705.449 12.499 6.387a4.002 4.002 0 1 1-4.538 6.5L6.363 13.871a4.348 4.348 0 0 0 2.297-3.393zm7.121 13.41c.09.058 1.594 1.735 4.087 1.467a4.955 4.955 0 0 0 3.02-1.47l.948 2.805h-9.002z"/></symbol><symbol id="icon-delivery" viewBox="0 0 45 32"><path d="M11.812 27.679H1.121v-9.688l5.677-4.129h5.014z"/><path style="fill:var(--color2,teal)" d="M11.812 27.119H1.121c.177.192.369.369.546.56v-9.688a5.012 5.012 0 0 1-.28.472c1.77-1.298 3.539-2.581 5.324-3.878.029-.03.324-.206.324-.236 0 .088-.398-.015-.118.059.472.103 1.091 0 1.578 0h3.303c.708 0 .708-1.106 0-1.106-1.607 0-3.215-.044-4.822 0-.457.015-.678.221-1.032.487l-2.271 1.652-2.271 1.652c-.369.265-.782.457-.841.944-.059.56 0 1.15 0 1.711V27.653c0 .295.251.56.56.56h10.691c.708.015.708-1.091 0-1.091z"/><path d="m4.041 18.964 2.05-1.858h3.628v5.648h-5.84z"/><path style="fill:var(--color2,teal)" d="M4.439 19.347c.678-.619 1.371-1.239 2.05-1.843-.133.059-.265.103-.398.162h3.628a20.305 20.305 0 0 1-.546-.56v5.633c.192-.192.369-.369.546-.56h-5.84l.56.56c.059-1.268.118-2.522.162-3.79.029-.708-1.077-.708-1.106 0-.059 1.268-.118 2.522-.162 3.79-.015.295.265.56.56.56h5.84a.57.57 0 0 0 .56-.56v-5.633a.57.57 0 0 0-.56-.56c-1.165 0-2.418-.133-3.583 0-.472.059-.811.501-1.15.811-.442.398-.885.811-1.342 1.209-.531.487.251 1.268.782.782z"/><path d="M9.497 28.166a2.506 2.506 0 1 1-5.013.001 2.506 2.506 0 0 1 5.013-.001z"/><path style="fill:var(--color2,teal)" d="M8.936 28.166c-.044 1.062-.855 1.947-1.947 1.947-1.062 0-1.947-.885-1.947-1.947s.885-1.961 1.947-1.947c1.091 0 1.902.87 1.947 1.947.03.708 1.135.708 1.106 0-.074-1.666-1.342-3.053-3.053-3.053-1.652 0-3.067 1.401-3.053 3.053 0 1.666 1.386 3.053 3.053 3.053 1.711 0 2.994-1.401 3.053-3.053.03-.723-1.076-.723-1.106 0z"/><path d="M11.812 10.101h27.635v17.725H11.812V10.101z"/><path style="fill:var(--color2,teal)" d="M39.447 27.266H11.812l.56.56V10.115l-.56.56H39.447l-.56-.56V27.826c0 .708 1.106.708 1.106 0V10.115a.57.57 0 0 0-.56-.56H11.798a.57.57 0 0 0-.56.56V27.826c0 .295.251.56.56.56H39.433c.723-.015.723-1.121.015-1.121z"/><path d="M36.011 28.417a2.506 2.506 0 1 1-5.013.001 2.506 2.506 0 0 1 5.013-.001z"/><path style="fill:var(--color2,teal)" d="M35.451 28.417c-.044 1.062-.855 1.947-1.947 1.947-1.062 0-1.947-.885-1.947-1.947s.885-1.961 1.947-1.947c1.091 0 1.902.885 1.947 1.947.029.708 1.135.708 1.106 0-.074-1.666-1.342-3.053-3.053-3.053-1.652 0-3.067 1.401-3.053 3.053 0 1.666 1.386 3.053 3.053 3.053 1.711 0 2.994-1.401 3.053-3.053.029-.708-1.077-.708-1.106 0z"/><path style="fill:var(--color2,teal)" d="M32.074 24.863h-8.45c-.708 0-.708 1.106 0 1.106h8.45c.723 0 .723-1.106 0-1.106z"/><path d="M29.287 6.238A6.24 6.24 0 0 0 25.866.664v6.562h-5.677V.944c-1.755 1.106-3.421 3.067-3.421 5.294a6.27 6.27 0 0 0 3.923 5.81v17.637a1.51 1.51 0 0 0 1.504 1.504h1.666a1.51 1.51 0 0 0 1.504-1.504V12.048c2.286-.929 3.923-3.185 3.923-5.81z"/><path style="fill:var(--color2,teal)" d="M29.832 6.238c-.044-2.566-1.43-4.852-3.701-6.061-.369-.192-.826.044-.826.472v6.577l.56-.56h-5.677l.56.56V.944c0-.398-.472-.708-.826-.472-2.212 1.43-3.967 3.775-3.657 6.533a6.857 6.857 0 0 0 4.159 5.53 5.012 5.012 0 0 0-.28-.472v17.091c0 .28-.015.56.029.826.162 1.15 1.121 1.755 2.212 1.784.87.015 1.932.147 2.684-.383.605-.428.841-1.076.855-1.799.059-2.846 0-5.692 0-8.538v-8.966a5.012 5.012 0 0 1-.28.472c2.536-1.106 4.144-3.569 4.188-6.312.015-.708-1.091-.708-1.106 0-.044 2.389-1.46 4.409-3.657 5.338-.177.074-.28.31-.28.472v16.487c0 .973.162 2.065-1.18 2.094-.87.029-2.256.236-2.389-.944-.015-.177 0-.369 0-.546V12.048c0-.177-.103-.398-.28-.472-1.902-.811-3.303-2.463-3.598-4.542-.324-2.374 1.194-4.365 3.097-5.604-.28-.162-.56-.324-.826-.472V7.24c0 .295.251.56.56.56h5.677a.57.57 0 0 0 .56-.56V.663c-.28.162-.56.324-.826.472 1.932 1.017 3.112 2.92 3.156 5.102 0 .708 1.106.708 1.091 0zM11.252 13.862V27.68c0 .708 1.106.708 1.106 0V13.862c0-.708-1.106-.708-1.106 0z"/><path d="m33.489 17.239-3.849-4.911s-1.017-.811-1.563-.383c-.31.236-3.274 3.097-3.274 3.097s-.605 1.475 0 2.197c.605.723 1.681.044 2.669-.708s1.519-1.091 1.519-1.091l4.498 1.799z"/><path d="M33.873 16.841c-.752-.944-1.489-1.902-2.241-2.846-.619-.782-1.209-1.888-2.109-2.389-.708-.383-1.386-.457-2.006.088-.59.516-1.15 1.076-1.711 1.607-.442.428-.988.841-1.386 1.327-.383.457-.487 1.268-.457 1.843.059 1.327 1.18 1.917 2.359 1.416 1.076-.457 1.947-1.342 2.935-1.961-.147.015-.28.044-.428.059 1.504.59 2.994 1.194 4.498 1.784.664.265.944-.811.295-1.062-1.312-.516-2.625-1.047-3.937-1.563-.546-.221-.811-.295-1.312.059-.546.383-1.076.796-1.622 1.18-.605.413-1.74 1.106-1.681-.162.015-.236.074-.472.133-.693.015-.059.074-.162.074-.236.015-.192.221.044-.103.147.162-.044.383-.369.501-.487.678-.649 1.342-1.298 2.035-1.932.162-.147.457-.56.678-.619.251-.074.737.221.944.413-.221-.192.088.162.133.221l.664.841a644.88 644.88 0 0 1 2.949 3.76c.457.546 1.239-.236.796-.796z"/><path style="fill:var(--color2,teal)" d="M33.902 16.841c-.752-.944-1.489-1.902-2.241-2.846-.619-.782-1.209-1.888-2.109-2.389-.708-.383-1.386-.457-2.006.088-.59.516-1.15 1.076-1.711 1.607-.442.428-.988.841-1.386 1.327-.383.457-.487 1.268-.457 1.843.059 1.327 1.18 1.917 2.359 1.416 1.076-.457 1.947-1.342 2.935-1.961.605-.383.044-1.342-.56-.959-.634.398-1.224.885-1.843 1.327-.339.251-1.135.9-1.563.619-.369-.251-.206-.9-.118-1.268.029-.103.103-.251.118-.369.015-.192-.044.133-.088.133.088-.015.265-.265.339-.324.487-.457.959-.929 1.445-1.386.398-.383.841-.959 1.327-1.239.221-.133.324-.088.605.059.118.059.251.133.354.221.162.118-.044-.044 0 0 .649.723 1.209 1.548 1.814 2.315.664.855 1.342 1.711 2.006 2.566.428.56 1.209-.221.782-.782z"/><path d="m17.784 13.523 3.731.339s1.416.059 1.711.826.221 1.681-.457 1.932c-.678.251-6.267.088-6.651 0-.369-.088.693-2.669 1.666-3.097z"/><path style="fill:var(--color2,teal)" d="M17.784 14.083c.914.088 1.843.162 2.758.251.649.059 1.947-.015 2.212.693.236.634.029 1.077-.59 1.121-.575.044-1.15.044-1.725.044-1.253 0-2.507-.015-3.746-.088-.088 0-.206-.029-.295-.015-.177.015-.103-.029-.103 0-.029.088.31.31.31.324.015 0 .015-.133.029-.133.074-.118.088-.31.133-.428.251-.649.649-1.519 1.298-1.843.634-.324.074-1.268-.56-.959-.737.369-1.239 1.209-1.578 1.947-.236.501-.708 1.43-.28 1.947.295.354.944.28 1.357.295.855.044 1.711.059 2.566.074.811.015 1.622.015 2.433-.029.619-.044 1.253-.088 1.637-.664.501-.752.383-2.035-.28-2.654-.501-.457-1.209-.575-1.858-.634-1.239-.118-2.492-.221-3.731-.339-.693-.088-.693 1.018.015 1.091z"/><path d="M38.533 26.19h-5.559V14.039h5.441z"/><path style="fill:var(--color2,teak)" d="M38.533 25.63h-5.574l.56.56V14.039l-.56.56H38.4c.708 0 .708-1.106 0-1.106h-5.441a.57.57 0 0 0-.56.56v12.151c0 .295.251.56.56.56h5.574c.723-.029.723-1.135 0-1.135z"/><path d="m16.133 16.619 6.267.133s1.091.28 1.091 1.283-.029 1.504-.708 1.666c-.678.162-6.326.339-6.326.339s-.752-.664-.752-1.711c0-1.047.428-1.711.428-1.711z"/><path fill="#1d1e1d" style="fill:var(--color3,teal)" d="M16.133 17.165c1.947.044 3.908.088 5.854.118.118 0 .236 0 .354.015s-.044 0-.074-.015c.044.015.118.029.162.059.28.221.457.295.516.693.044.265.059.885-.162 1.091-.206.177-.826.118-1.135.147a81.8 81.8 0 0 1-1.961.103c-1.076.044-2.138.088-3.215.118.133.059.265.103.398.162-.737-.678-.737-1.917-.236-2.758.369-.605-.59-1.165-.959-.56-.516.855-.664 2.065-.31 2.994.206.546.575 1.209 1.209 1.253 1.593.103 3.288-.103 4.881-.206.59-.029 1.357 0 1.888-.31.811-.472.9-1.888.59-2.684-.516-1.342-1.873-1.209-3.038-1.239-1.578-.029-3.171-.074-4.748-.103-.737 0-.737 1.106-.015 1.121z"/><path d="m16.693 20.055 5.648-.251s1.504.133 1.725.973-.103 1.829-.575 1.976c-1.445.487-3.2.472-3.2.472h-3.023s-1.607-1.504-.575-3.171z"/><path fill="#1d1e1d" style="fill:var(--color3,teal)" d="M16.693 20.601c1.091-.044 2.168-.103 3.259-.147.811-.029 1.991-.221 2.64-.059.339.088.767.177.944.516.133.251.059.708-.029.959-.133.354-.265.398-.619.487-.826.221-1.711.31-2.581.31-1.018.015-2.02 0-3.038 0 .133.059.265.103.398.162-.693-.664-.973-1.637-.487-2.507.339-.619-.605-1.18-.959-.56-.546.988-.531 2.065.044 3.053.265.457.56.914 1.121.959 1.194.118 2.492.044 3.687-.029.973-.074 2.595-.088 3.215-.973.531-.767.619-2.123-.088-2.802-.855-.841-2.065-.708-3.156-.664-1.445.059-2.905.133-4.35.192-.723.029-.723 1.135 0 1.106z"/><path d="M17.209 23.137s6.341-.31 6.665.428.177 1.489-.147 1.814c-.487.487-.973.428-2.713.501s-3.406 0-3.731-.678c-.531-1.121-.074-2.065-.074-2.065z"/><path fill="#1d1e1d" style="fill:var(--color3,teal)" d="M17.209 23.683c1.888-.088 3.982-.265 5.854.118.118.029.339.044.413.118.088.088.044.9-.162 1.106-.383.369-1.194.265-1.666.28-1.062.044-2.227.177-3.274-.088-.56-.133-.723-.383-.782-.973-.015-.192 0-.398.029-.59.015-.044.147-.428.059-.251.28-.649-.664-1.209-.959-.56a3.086 3.086 0 0 0-.162 1.991c.221.855.752 1.283 1.593 1.46 1.135.236 2.315.147 3.465.103.649-.029 1.416.015 2.006-.295 1.076-.56 1.46-2.669.206-3.244-1.018-.457-2.418-.354-3.51-.369a55.78 55.78 0 0 0-3.141.059c-.678.059-.693 1.165.029 1.135z"/><path style="fill:var(--color2,teal)" d="M44.667 22.341h-7.3c-.708 0-.708 1.106 0 1.106h7.3c.708 0 .708-1.106 0-1.106zM36.557 21.029h7.3c.708 0 .708-1.106 0-1.106h-7.3c-.708 0-.708 1.106 0 1.106zM43.06 17.519h-7.3c-.708 0-.708 1.106 0 1.106h7.3c.708 0 .708-1.106 0-1.106z"/></symbol><symbol id="icon-phone-contact" viewBox="0 0 24 24"><path d="M6.609 10.781q2.25 4.359 6.609 6.609l2.203-2.203q.469-.469 1.031-.234 1.688.563 3.563.563.422 0 .703.281t.281.703v3.516q0 .422-.281.703t-.703.281q-7.031 0-12.023-4.992T3 3.985q0-.422.281-.703t.703-.281H7.5q.422 0 .703.281t.281.703q0 1.875.563 3.563.188.609-.234 1.031z"/></symbol><symbol id="icon-mail" viewBox="0 0 24 24"><path d="M12 11.016 20.016 6H3.985zM20.016 18V8.016L12 12.985 3.984 8.016V18h16.031zm0-14.016q.797 0 1.383.609t.586 1.406v12q0 .797-.586 1.406t-1.383.609H3.985q-.797 0-1.383-.609t-.586-1.406v-12q0-.797.586-1.406t1.383-.609h16.031z"/></symbol><symbol id="icon-icon-telegram" viewBox="0 0 32 32"><path style="fill:var(--color1,#08c)" d="M29.333 16c0 7.363-5.97 13.333-13.333 13.333S2.667 23.363 2.667 16 8.637 2.667 16 2.667 29.333 8.637 29.333 16z"/><path style="fill:var(--color1,#000)" opacity=".05" d="M6.746 15.644c5.437-2.463 11.822-5.136 12.805-5.523 2.168-.853 3.113.019 2.965 1.409-.182 1.703-1.045 6.66-1.575 10.211-.311 2.078-1.436 2.715-2.706 1.909-.963-.611-4.275-2.78-5.147-3.521-.594-.505-1.008-1.072-.587-1.649.123-.169.439-.509.614-.678.879-.852.761-1.035-.303-.275-.127.091-.861.623-1.163.825-.74.493-1.421.52-2.575.128-.944-.321-1.851-.568-2.423-.815-.79-.342-1.093-1.483.093-2.02z"/><path style="fill:var(--color1,#08c)" opacity=".07" d="M7.224 15.727a501.775 501.775 0 0 1 12.164-5.209c2.176-.879 2.977-.357 2.743 1.341-.217 1.572-.989 6.436-1.529 9.697-.319 1.919-1.249 2.342-2.461 1.558-.759-.489-3.815-2.503-4.557-3.089-.573-.453-1.167-.975-.473-1.732.232-.253 1.513-1.489 2.471-2.409.555-.534.357-.797-.313-.339-1.229.842-3.239 2.175-3.597 2.417-.683.46-1.325.571-2.443.219-.881-.277-1.731-.546-2.175-.719-.991-.384-1.004-1.211.17-1.735z"/><path fill="#fff" style="fill:var(--color2,#fff)" d="M7.702 15.811c4.66-2.05 10.69-4.549 11.523-4.895 2.183-.905 2.853-.732 2.519 1.273-.24 1.441-.932 6.213-1.484 9.183-.327 1.761-1.062 1.97-2.217 1.208-.555-.367-3.359-2.221-3.967-2.656-.555-.397-1.321-.874-.361-1.814.342-.335 2.583-2.475 4.329-4.14.229-.219-.059-.578-.323-.403a2137.894 2137.894 0 0 0-6.031 4.009c-.627.426-1.23.621-2.311.311-.817-.235-1.615-.515-1.926-.621-1.197-.411-.913-.943.249-1.454z"/></symbol><symbol id="icon-icon-viber" viewBox="0 0 32 32"><path fill="#fff" style="fill:var(--color2,#fff)" d="M16 3.333c-1.759 0-7.113 0-10.073 2.703C4.164 7.792 3.334 10.329 3.334 14v2c0 3.671.831 6.208 2.614 7.984.888.81 2.099 1.457 3.579 1.905l.474.143v3.552c0 .417.121.417.161.417.082 0 .213-.026.463-.247.06-.059.5-.535 2.64-2.933l.216-.242.323.021a35.23 35.23 0 0 0 2.197.068c1.759 0 7.113 0 10.073-2.703 1.762-1.756 2.593-4.293 2.593-7.963v-2c0-3.671-.831-6.208-2.614-7.984C23.114 3.335 17.76 3.335 16 3.335z"/><path fill="#7e57c2" style="fill:var(--color3,#7e57c2)" d="M22.301 19.236c-.741-.624-1.083-.813-2.105-1.427-.426-.255-1.075-.476-1.416-.476-.233 0-.511.178-.682.349-.437.437-.581.985-1.347.985-.75 0-2.06-.763-3-1.75-.987-.94-1.75-2.25-1.75-3 0-.767.537-.92.975-1.358.171-.17.359-.449.359-.681 0-.341-.221-.98-.476-1.406-.614-1.023-.802-1.365-1.427-2.105-.211-.251-.452-.365-.704-.366-.426-.001-.985.211-1.364.493-.569.425-1.165 1.003-1.324 1.723a1.752 1.752 0 0 0-.038.295c-.031.75.264 1.511.582 2.156.749 1.519 1.739 2.99 2.817 4.303.345.42.72.811 1.109 1.188.377.388.768.763 1.188 1.109 1.313 1.078 2.784 2.069 4.303 2.817.639.315 1.391.604 2.133.583.106-.003.212-.015.318-.039.72-.159 1.298-.755 1.723-1.324.282-.379.493-.937.493-1.364-.001-.252-.115-.493-.366-.704zM22.667 16a.667.667 0 0 1-.667-.667v-.667c0-3.308-2.692-6-6-6a.667.667 0 0 1 0-1.334c4.043 0 7.333 3.29 7.333 7.333v.667a.667.667 0 0 1-.667.667zm-4.095-1.333a.667.667 0 0 1-.645-.499A1.992 1.992 0 0 0 16.5 12.74a.667.667 0 0 1 .334-1.292 3.33 3.33 0 0 1 2.383 2.383.666.666 0 0 1-.646.835z"/><path fill="#7e57c2" style="fill:var(--color3,#7e57c2)" d="M20.667 15.333a.667.667 0 0 1-.667-.667 3.996 3.996 0 0 0-3.785-3.991.667.667 0 1 1 .07-1.332 5.328 5.328 0 0 1 5.049 5.322.667.667 0 0 1-.667.667z"/><path fill="#7e57c2" style="fill:var(--color3,#7e57c2)" d="M16 2.667c-3 0-7.675.276-10.523 2.877C3.464 7.549 2.666 10.361 2.666 14c0 .301-.001.637.001 1-.003.362-.001.698-.001.999 0 3.639.797 6.451 2.811 8.456 1.084.99 2.436 1.641 3.856 2.071v3.057c0 1.064.699 1.083.827 1.083h.006c.329-.001.614-.163.899-.416.107-.095 1.347-1.477 2.695-2.987.803.051 1.565.07 2.239.07 3 0 7.674-.277 10.523-2.878 2.013-2.004 2.811-4.817 2.811-8.456 0-.301.001-.637-.001-1 .003-.363.001-.698.001-1 0-3.639-.797-6.451-2.811-8.456C23.674 2.942 19 2.666 16 2.666zm11.333 13.1v.232c0 3.271-.697 5.499-2.191 7.008-2.588 2.326-7.518 2.326-9.143 2.326-.495 0-1.297-.001-2.245-.067-.263.296-3.088 3.455-3.088 3.455v-3.909c-1.403-.337-2.789-.889-3.809-1.805-1.494-1.509-2.191-3.738-2.191-7.009v-.232c0-.234-.001-.487.001-.782a63.867 63.867 0 0 1-.001-.753v-.232c0-3.271.697-5.499 2.191-7.008C9.444 4.665 14.375 4.665 16 4.665s6.555 0 9.142 2.326c1.495 1.509 2.191 3.737 2.191 7.008v.232c0 .234.001.487-.001.782.002.267.002.519.002.753z"/></symbol></defs></svg>