<svg aria-hidden="true" style="width:0;height:0;position:absolute;overflow:hidden" xmlns="http://www.w3.org/2000/svg"><defs><symbol id="icon-number1" viewBox="0 0 32 32"><path d="M16 3C8.82 3 3 8.82 3 16s5.82 13 13 13 13-5.82 13-13S23.18 3 16 3zm0 24C9.925 27 5 22.075 5 16S9.925 5 16 5s11 4.925 11 11-4.925 11-11 11zm-1.172-14.291c-.589.458-1.134.77-1.635.934v1.742a6.633 6.633 0 0 0 2.484-1.455v7.111h2.047v-10h-1.686a3.704 3.704 0 0 1-1.21 1.668z"/></symbol><symbol id="icon-number0" viewBox="0 0 32 32"><path d="M16 3C8.82 3 3 8.82 3 16s5.82 13 13 13 13-5.82 13-13S23.18 3 16 3zm0 24C9.925 27 5 22.075 5 16S9.925 5 16 5s11 4.925 11 11-4.925 11-11 11zm-.006-16.263c-.973 0-1.729.342-2.272 1.026-.657.83-.985 2.188-.985 4.074 0 1.923.299 3.26.896 4.01s1.385 1.124 2.361 1.124c.971 0 1.729-.342 2.271-1.025.657-.829.986-2.192.986-4.088 0-1.9-.326-3.261-.979-4.082-.547-.692-1.307-1.039-2.278-1.039zm1.051 7.622c-.102.383-.243.648-.426.797a.972.972 0 0 1-.625.222c-.234 0-.441-.073-.622-.219s-.331-.438-.45-.878-.178-1.248-.178-2.423.066-2.012.199-2.508c.1-.383.242-.648.426-.796a.966.966 0 0 1 .625-.222c.232 0 .439.074.621.222s.33.442.449.882.18 1.248.18 2.423-.066 2.008-.199 2.5z"/></symbol><symbol id="icon-number9" viewBox="0 0 32 32"><path d="M16 3C8.82 3 3 8.82 3 16s5.82 13 13 13 13-5.82 13-13S23.18 3 16 3zm0 24C9.925 27 5 22.075 5 16S9.925 5 16 5s11 4.925 11 11-4.925 11-11 11zm-.391-15.663c-.935 0-1.704.311-2.309.933s-.905 1.442-.905 2.458c0 .976.286 1.768.857 2.376s1.253.913 2.041.913c.725 0 1.328-.281 1.812-.842-.077 1.149-.255 1.906-.532 2.271-.278.364-.614.547-1.011.547-.314 0-.566-.092-.758-.274s-.31-.464-.355-.843l-1.858.205c.137.833.446 1.459.929 1.877.483.419 1.117.629 1.9.629 1.09 0 1.973-.406 2.652-1.219.679-.812 1.019-2.135 1.019-3.968 0-1.802-.326-3.096-.978-3.883s-1.487-1.18-2.504-1.18zm.946 4.836a1.182 1.182 0 0 1-.931.438c-.382 0-.701-.151-.956-.455s-.382-.779-.382-1.426c0-.638.117-1.098.351-1.378s.529-.42.885-.42c.373 0 .701.171.986.513.284.342.427.823.427 1.443 0 .565-.126.993-.38 1.285z"/></symbol><symbol id="icon-number8" viewBox="0 0 32 32"><path d="M16 3C8.82 3 3 8.82 3 16s5.82 13 13 13 13-5.82 13-13S23.18 3 16 3zm0 24C9.925 27 5 22.075 5 16S9.925 5 16 5s11 4.925 11 11-4.925 11-11 11zm1.206-11.607c.437-.191.776-.468 1.018-.831s.362-.776.362-1.241c0-.748-.264-1.365-.789-1.853-.527-.487-1.267-.731-2.219-.731-.962 0-1.703.244-2.225.731s-.783 1.105-.783 1.853c0 .438.113.84.338 1.207.227.367.587.655 1.084.865-.578.247-1.001.597-1.27 1.051s-.402.953-.402 1.496c0 .986.357 1.763 1.072 2.328.605.479 1.364.719 2.275.719.979 0 1.764-.29 2.354-.87.59-.579.885-1.332.885-2.259 0-.562-.145-1.057-.434-1.486s-.71-.755-1.266-.979zm-2.487-2.804c.219-.219.512-.328.881-.328.355 0 .641.108.857.325s.324.505.324.865c0 .383-.109.683-.328.899s-.51.325-.874.325c-.36 0-.647-.107-.864-.321-.216-.214-.324-.513-.324-.896 0-.36.109-.65.328-.869zm1.899 6.424a1.279 1.279 0 0 1-.985.428c-.405 0-.744-.147-1.016-.444s-.406-.711-.406-1.24c0-.379.115-.731.346-1.056s.58-.486 1.049-.486c.406 0 .741.143 1.006.428.264.286.396.664.396 1.133 0 .538-.13.951-.39 1.237z"/></symbol><symbol id="icon-number7" viewBox="0 0 32 32"><path d="M16 3C8.82 3 3 8.82 3 16s5.82 13 13 13 13-5.82 13-13S23.18 3 16 3zm0 24C9.925 27 5 22.075 5 16S9.925 5 16 5s11 4.925 11 11-4.925 11-11 11zm-3.256-13.709h4.371a14.12 14.12 0 0 0-2.162 3.867c-.54 1.441-.826 2.856-.857 4.243h1.852c-.005-.885.14-1.889.434-3.012a13.433 13.433 0 0 1 1.28-3.184c.56-.998 1.11-1.764 1.653-2.297V11.51h-6.57v1.781z"/></symbol><symbol id="icon-number6" viewBox="0 0 32 32"><path d="M16 3C8.82 3 3 8.82 3 16s5.82 13 13 13 13-5.82 13-13S23.18 3 16 3zm0 24C9.925 27 5 22.075 5 16S9.925 5 16 5s11 4.925 11 11-4.925 11-11 11zm.52-12.315c-.711 0-1.305.282-1.784.848.073-1.151.249-1.908.529-2.271s.622-.545 1.028-.545c.305 0 .553.091.744.273s.31.463.355.845l1.859-.205c-.137-.81-.455-1.427-.954-1.853s-1.129-.638-1.89-.638c-1.085 0-1.967.405-2.646 1.217-.679.811-1.018 2.135-1.018 3.972 0 1.791.325 3.08.978 3.866.651.786 1.483 1.18 2.496 1.18.944 0 1.717-.311 2.318-.931.603-.621.903-1.445.903-2.472 0-.968-.287-1.757-.858-2.368-.571-.613-1.258-.918-2.06-.918zm.681 4.675a1.118 1.118 0 0 1-.888.417c-.368 0-.696-.17-.983-.51s-.43-.823-.43-1.449c0-.566.127-.995.382-1.285s.567-.436.936-.436c.382 0 .701.152.956.456s.383.782.383 1.436c0 .636-.119 1.093-.356 1.371z"/></symbol><symbol id="icon-number5" viewBox="0 0 32 32"><path d="M16 3C8.82 3 3 8.82 3 16s5.82 13 13 13 13-5.82 13-13S23.18 3 16 3zm0 24C9.925 27 5 22.075 5 16S9.925 5 16 5s11 4.925 11 11-4.925 11-11 11zm.259-13.111c-.447 0-.886.107-1.313.321l.305-1.704h3.622v-1.797h-5.078l-.985 5.219 1.557.227c.438-.49.932-.734 1.484-.734.442 0 .801.154 1.077.462s.414.77.414 1.386c0 .657-.14 1.148-.417 1.475s-.618.489-1.02.489c-.351 0-.661-.126-.93-.379-.27-.252-.431-.595-.486-1.027l-1.913.198c.114.839.462 1.506 1.046 2.003.584.496 1.338.744 2.264.744 1.158 0 2.062-.441 2.715-1.327a3.618 3.618 0 0 0 .717-2.21c0-.989-.296-1.794-.889-2.415-.595-.621-1.318-.931-2.17-.931z"/></symbol><symbol id="icon-number4" viewBox="0 0 32 32"><path d="M16 3C8.82 3 3 8.82 3 16s5.82 13 13 13 13-5.82 13-13S23.18 3 16 3zm0 24C9.925 27 5 22.075 5 16S9.925 5 16 5s11 4.925 11 11-4.925 11-11 11zm2.176-15.663h-1.613l-4.354 6.374v1.674h4.109V21.4h1.858v-2.016h1.243v-1.68h-1.243v-6.367zm-1.859 6.368h-2.309l2.309-3.434v3.434z"/></symbol><symbol id="icon-number3" viewBox="0 0 32 32"><path d="M16 3C8.82 3 3 8.82 3 16s5.82 13 13 13 13-5.82 13-13S23.18 3 16 3zm0 24C9.925 27 5 22.075 5 16S9.925 5 16 5s11 4.925 11 11-4.925 11-11 11zm1.248-11.781c.963-.525 1.443-1.228 1.443-2.108 0-.621-.234-1.177-.705-1.67-.571-.602-1.33-.903-2.275-.903-.553 0-1.052.104-1.497.311s-.792.493-1.042.855c-.248.362-.435.847-.559 1.454l1.773.302c.051-.439.193-.772.426-1.001s.516-.343.845-.343c.334 0 .603.101.804.301.201.201.302.471.302.809 0 .398-.138.716-.413.957-.273.24-.673.353-1.195.339l-.213 1.565a3.37 3.37 0 0 1 .885-.144c.374 0 .691.141.952.423s.391.665.391 1.147c0 .509-.136.914-.407 1.214s-.607.45-1.004.45c-.37 0-.686-.125-.945-.375-.261-.25-.42-.612-.479-1.086l-1.859.226c.096.843.442 1.525 1.04 2.047s1.35.782 2.258.782c.957 0 1.758-.309 2.401-.929s.965-1.368.965-2.247c0-.605-.172-1.122-.515-1.55-.346-.427-.804-.703-1.377-.826z"/></symbol><symbol id="icon-number2" viewBox="0 0 32 32"><path d="M16 3C8.82 3 3 8.82 3 16s5.82 13 13 13 13-5.82 13-13S23.18 3 16 3zm0 24C9.925 27 5 22.075 5 16S9.925 5 16 5s11 4.925 11 11-4.925 11-11 11zm1.564-9.223c.607-.556 1.027-.982 1.26-1.278.351-.447.607-.875.77-1.282.161-.408.242-.838.242-1.289 0-.793-.283-1.457-.848-1.99s-1.342-.8-2.331-.8c-.902 0-1.654.23-2.256.69s-.96 1.218-1.073 2.275l1.914.191c.036-.56.173-.96.41-1.201s.555-.361.956-.361c.405 0 .723.115.952.345.23.23.346.56.346.988 0 .387-.133.779-.396 1.176-.195.287-.727.834-1.592 1.64-1.076.998-1.796 1.799-2.16 2.403s-.584 1.242-.656 1.917h6.734V19.42h-3.819a3.34 3.34 0 0 1 .394-.534c.16-.183.545-.552 1.153-1.109z"/></symbol></defs></svg>