<svg aria-hidden="true" style="position: absolute; width: 0; height: 0; overflow: hidden;" version="1.1"
    xmlns="http://www.w3.org/2000/svg" xmlns:xlink="http://www.w3.org/1999/xlink">
    <defs>
        <symbol id="icon-menu_open" viewBox="0 0 24 24">
            <path d="M3 6h18v2.016h-18v-2.016zM3 12.984v-1.969h18v1.969h-18zM3 18v-2.016h18v2.016h-18z"></path>
        </symbol>
        <symbol id="icon-close" viewBox="0 0 24 24">
            <path
                d="M18.984 6.422l-5.578 5.578 5.578 5.578-1.406 1.406-5.578-5.578-5.578 5.578-1.406-1.406 5.578-5.578-5.578-5.578 1.406-1.406 5.578 5.578 5.578-5.578z">
            </path>
        </symbol>
        <symbol id="icon-pencil" viewBox="0 0 32 32">
            <path
                d="M20.109 29.113h-4.101v0.719c0 1.082 0.879 1.96 1.96 1.96h7.665c1.081 0 1.96-0.879 1.96-1.96v-27.838c0-1.081-0.879-1.96-1.96-1.96h-7.665c-1.081 0-1.96 0.879-1.96 1.96v0.719h4.101c0.542 0 0.98 0.438 0.98 0.98s-0.438 0.98-0.98 0.98h-4.101v1.983h2.078c0.542 0 0.98 0.438 0.98 0.98s-0.438 0.98-0.98 0.98h-2.078v2.156h2.078c0.542 0 0.98 0.438 0.98 0.98s-0.438 0.98-0.98 0.98h-2.078v2.156h4.101c0.542 0 0.98 0.438 0.98 0.98s-0.438 0.98-0.98 0.98h-4.101v2.111h2.078c0.542 0 0.98 0.438 0.98 0.98s-0.438 0.98-0.98 0.98h-2.078v2.156h2.078c0.542 0 0.98 0.438 0.98 0.98s-0.438 0.98-0.98 0.98h-2.078v2.111h4.101c0.542 0 0.98 0.438 0.98 0.98s-0.438 0.983-0.98 0.983z">
            </path>
            <path
                d="M7.32 31.71c0.242 0.402 0.843 0.382 1.055-0.036l2.261-4.47c0.007-0.013 0.010-0.023 0.016-0.036h-6.045c0.010 0.020 0.023 0.042 0.033 0.062l2.679 4.48z">
            </path>
            <path
                d="M9.137 0h-3.179c-0.768 0-1.552 0.771-1.552 1.523l0.007 2.764h6.283l-0.007-2.761c0-0.751-0.784-1.526-1.552-1.526z">
            </path>
            <path d="M10.702 6.251h-6.283l0.052 18.957h6.287z"></path>
        </symbol>
        <symbol id="icon-phone" viewBox="0 0 32 32">
            <path
                d="M14.43 1.362c0 0.052-0.042 0.094-0.094 0.094s-0.094-0.042-0.094-0.094c0-0.052 0.042-0.094 0.094-0.094s0.094 0.042 0.094 0.094z">
            </path>
            <path
                d="M14.706 1.362c0 0.052-0.042 0.094-0.094 0.094s-0.094-0.042-0.094-0.094c0-0.052 0.042-0.094 0.094-0.094s0.094 0.042 0.094 0.094z">
            </path>
            <path
                d="M14.981 1.362c0 0.052-0.042 0.094-0.094 0.094s-0.094-0.042-0.094-0.094c0-0.052 0.042-0.094 0.094-0.094s0.094 0.042 0.094 0.094z">
            </path>
            <path
                d="M15.256 1.362c0 0.052-0.042 0.094-0.094 0.094s-0.094-0.042-0.094-0.094c0-0.052 0.042-0.094 0.094-0.094s0.094 0.042 0.094 0.094z">
            </path>
            <path
                d="M15.532 1.362c0 0.052-0.042 0.094-0.094 0.094s-0.094-0.042-0.094-0.094c0-0.052 0.042-0.094 0.094-0.094s0.094 0.042 0.094 0.094z">
            </path>
            <path
                d="M15.808 1.362c0 0.052-0.042 0.094-0.094 0.094s-0.094-0.042-0.094-0.094c0-0.052 0.042-0.094 0.094-0.094s0.094 0.042 0.094 0.094z">
            </path>
            <path
                d="M16.084 1.362c0 0.052-0.042 0.094-0.094 0.094s-0.094-0.042-0.094-0.094c0-0.052 0.042-0.094 0.094-0.094s0.094 0.042 0.094 0.094z">
            </path>
            <path
                d="M16.359 1.362c0 0.052-0.042 0.094-0.094 0.094s-0.094-0.042-0.094-0.094c0-0.052 0.042-0.094 0.094-0.094s0.094 0.042 0.094 0.094z">
            </path>
            <path
                d="M16.634 1.362c0 0.052-0.042 0.094-0.094 0.094s-0.094-0.042-0.094-0.094c0-0.052 0.042-0.094 0.094-0.094s0.094 0.042 0.094 0.094z">
            </path>
            <path
                d="M16.912 1.362c0 0.052-0.042 0.094-0.094 0.094s-0.094-0.042-0.094-0.094c0-0.052 0.042-0.094 0.094-0.094s0.094 0.042 0.094 0.094z">
            </path>
            <path
                d="M17.187 1.362c0 0.052-0.042 0.094-0.094 0.094s-0.094-0.042-0.094-0.094c0-0.052 0.042-0.094 0.094-0.094s0.094 0.042 0.094 0.094z">
            </path>
            <path
                d="M17.462 1.362c0 0.052-0.042 0.094-0.094 0.094s-0.094-0.042-0.094-0.094c0-0.052 0.042-0.094 0.094-0.094s0.094 0.042 0.094 0.094z">
            </path>
            <path
                d="M17.738 1.362c0 0.052-0.042 0.094-0.094 0.094s-0.094-0.042-0.094-0.094c0-0.052 0.042-0.094 0.094-0.094s0.094 0.042 0.094 0.094z">
            </path>
            <path
                d="M18.014 1.362c0 0.052-0.042 0.094-0.094 0.094s-0.094-0.042-0.094-0.094c0-0.052 0.042-0.094 0.094-0.094s0.094 0.042 0.094 0.094z">
            </path>
            <path
                d="M23.092 0h-14.184c-1.146 0-2.075 0.929-2.075 2.075v27.849c0 1.146 0.929 2.075 2.075 2.075h14.184c1.146 0 2.075-0.929 2.075-2.075v-27.849c0.001-1.146-0.928-2.075-2.075-2.075zM21.641 1.232c0.126 0 0.229 0.103 0.229 0.229s-0.103 0.229-0.229 0.229c-0.127 0-0.229-0.103-0.229-0.229s0.102-0.229 0.229-0.229zM13.545 1.035h5.126c0.182 0 0.328 0.147 0.328 0.327s-0.146 0.327-0.328 0.327h-5.126c-0.182 0-0.328-0.147-0.328-0.327s0.146-0.327 0.328-0.327zM11.454 30.635h-0.505c-0.034 0-0.061-0.028-0.061-0.061s0.027-0.061 0.061-0.061h0.505c0.034 0 0.061 0.028 0.061 0.061s-0.028 0.061-0.061 0.061zM11.454 30.389h-0.505c-0.034 0-0.061-0.027-0.061-0.061s0.027-0.061 0.061-0.061h0.505c0.034 0 0.061 0.028 0.061 0.061s-0.028 0.061-0.061 0.061zM11.879 30.549c0 0.073-0.058 0.132-0.131 0.132s-0.132-0.059-0.132-0.132v-0.433h-0.83v0.433c0 0.073-0.058 0.132-0.131 0.132s-0.131-0.059-0.131-0.132v-0.564c0-0.072 0.059-0.131 0.131-0.131h1.093c0.072 0 0.131 0.059 0.131 0.131v0.564zM17.643 30.508c0 0.287-0.233 0.519-0.519 0.519h-2.27c-0.287 0-0.519-0.232-0.519-0.519v-0.454c0-0.287 0.232-0.519 0.519-0.519h2.27c0.287 0 0.519 0.232 0.519 0.519v0.454zM21.032 30.705h-0.412c-0.072 0-0.131-0.059-0.131-0.132s0.058-0.131 0.131-0.131h0.412c0.089 0 0.161-0.069 0.161-0.154s-0.072-0.153-0.161-0.153h-0.347c-0.013 0.018-0.029 0.027-0.058 0.029-0.007 0.004-0.020-0.002-0.029-0.006l-0.214-0.090c-0.026-0.011-0.043-0.037-0.043-0.065s0.017-0.054 0.043-0.065l0.214-0.090c0.026-0.011 0.057-0.005 0.077 0.015 0.003 0.003 0.006 0.006 0.008 0.009h0.35c0.233 0 0.423 0.187 0.423 0.416s-0.189 0.416-0.423 0.416zM23.784 28.887h-15.74v-25.687h15.74v25.687z">
            </path>
        </symbol>
        <symbol id="icon-production" viewBox="0 0 32 32">
            <path
                d="M4.341 8.034c-1.1 0-1.994 0.895-1.994 1.994s0.895 1.994 1.994 1.994 1.994-0.895 1.994-1.994c0-1.1-0.895-1.994-1.994-1.994zM4.341 11.068c-0.573 0-1.039-0.466-1.039-1.039s0.466-1.040 1.039-1.040c0.573 0 1.040 0.466 1.040 1.040s-0.466 1.039-1.040 1.039z">
            </path>
            <path
                d="M19.348 22.838c1.324 0 2.402-1.077 2.402-2.402s-1.077-2.402-2.402-2.402c-1.324 0-2.402 1.077-2.402 2.402s1.077 2.402 2.402 2.402zM19.348 18.989c0.798 0 1.447 0.649 1.447 1.447s-0.649 1.447-1.447 1.447-1.447-0.649-1.447-1.447c0-0.798 0.649-1.447 1.447-1.447z">
            </path>
            <path
                d="M29.362 26.689h-4.517l-1.255-3.715c1.475-2.46 0.556-5.656-1.996-6.96l-11.080-5.662 5.839-4.174c1.975 0.662 1.882 0.661 2.023 0.661 0.537 0 0.663-0.756 0.154-0.929-2.153-0.867-3.285-0.744-3.803-1.929-0.702-1.606 1.048-3.224 2.6-2.35l5.995 3.377-0.979 2.199-1.991-0.677c-0.598-0.204-0.906 0.7-0.307 0.904l2.006 0.682c0.012 0.439 0.299 0.814 0.702 0.951l0.873 0.297c0.333 0.113 0.684 0.050 0.949-0.146l1.224 1.408c0.172 0.198 0.416 0.303 0.662 0.303 0.396 0 0.549-0.22 1.363-0.678 0.54-0.327 0.045-1.144-0.495-0.816l-0.852 0.517-1.377-1.584 0.905-2.033 2.127 0.012 0.163 0.983c0.105 0.634 1.045 0.462 0.942-0.157l-0.174-1.046c-0.070-0.423-0.433-0.732-0.861-0.735l-1.869-0.011c0.001-0.364-0.191-0.714-0.529-0.904l-0.803-0.453c-0.387-0.218-0.882-0.168-1.218 0.149l-5.987-3.372c-1.192-0.671-2.695-0.384-3.556 0.682l-9.739 4.21c-2.453-0.088-4.499 1.881-4.499 4.339 0 2.796 2.626 4.884 5.365 4.219l9.649 8.929-1.187 3.512h-1.361c-0.631 0-0.632 0.955 0 0.955h16.896c0.928 0 1.683 0.755 1.683 1.683v1.083c0 0.102-0.083 0.184-0.184 0.184h-22.444c-0.101 0-0.184-0.083-0.184-0.184v-1.083c0-0.928 0.755-1.683 1.683-1.683h0.64c0.631 0 0.632-0.955 0-0.955h-0.64c-1.455 0-2.638 1.183-2.638 2.638v1.083c0 0.628 0.511 1.139 1.139 1.139h22.444c0.628 0 1.139-0.511 1.139-1.139v-1.083c0-1.455-1.183-2.638-2.638-2.638zM24.53 4.854l0.804 0.453c0.037 0.021 0.051 0.065 0.034 0.104l-1.338 3.005c-0.017 0.039-0.060 0.057-0.1 0.044l-0.873-0.297c-0.059-0.022-0.060-0.083-0.048-0.11l1.407-3.16c0.012-0.027 0.039-0.077 0.114-0.038zM13.655 2.772c-0.214 1.269 0.458 2.495 1.599 3.017l-5.698 4.073-0.92-0.47c-0.221-1.501-1.214-2.755-2.561-3.344zM0.955 10.028c0-1.867 1.519-3.387 3.386-3.387s3.387 1.519 3.387 3.387-1.519 3.386-3.387 3.386c-1.867 0-3.386-1.519-3.386-3.386zM8.66 10.477l12.499 6.387c2.161 1.105 2.848 3.865 1.46 5.854-1.393 1.994-4.222 2.29-5.998 0.646l-10.258-9.493c1.253-0.662 2.146-1.919 2.297-3.393zM15.781 23.887c0.090 0.058 1.594 1.735 4.087 1.467 1.156-0.125 2.221-0.649 3.020-1.47l0.948 2.805h-9.002z">
            </path>
        </symbol>
        <symbol id="icon-delivery" viewBox="0 0 45 32">
            <path d="M11.812 27.679h-10.691v-9.688l5.677-4.129h5.014z">
            </path>
            <!--  #283036-->
            <path fill="#000" style="fill: var(--color2, teal)"
                d="M11.812 27.119c-3.569 0-7.123 0-10.691 0 0.177 0.192 0.369 0.369 0.546 0.56 0-3.229 0-6.459 0-9.688-0.088 0.162-0.177 0.324-0.28 0.472 1.77-1.298 3.539-2.581 5.324-3.878 0.029-0.030 0.324-0.206 0.324-0.236 0 0.088-0.398-0.015-0.118 0.059 0.472 0.103 1.091 0 1.578 0 1.106 0 2.197 0 3.303 0 0.708 0 0.708-1.106 0-1.106-1.607 0-3.215-0.044-4.822 0-0.457 0.015-0.678 0.221-1.032 0.487-0.752 0.546-1.519 1.106-2.271 1.652s-1.519 1.106-2.271 1.652c-0.369 0.265-0.782 0.457-0.841 0.944-0.059 0.56 0 1.15 0 1.711 0 1.003 0 2.006 0 2.994 0 1.637 0 3.274 0 4.911 0 0.295 0.251 0.56 0.56 0.56 3.569 0 7.123 0 10.691 0 0.708 0.015 0.708-1.091 0-1.091v0z">
            </path>
            <path d="M4.041 18.964l2.050-1.858h3.628v5.648h-5.84z"></path>
            <path fill="#000" style="fill: var(--color2, teal)"
                d="M4.439 19.347c0.678-0.619 1.371-1.239 2.050-1.843-0.133 0.059-0.265 0.103-0.398 0.162 1.209 0 2.418 0 3.628 0-0.192-0.192-0.369-0.369-0.546-0.56 0 1.873 0 3.76 0 5.633 0.192-0.192 0.369-0.369 0.546-0.56-1.947 0-3.893 0-5.84 0 0.192 0.192 0.369 0.369 0.56 0.56 0.059-1.268 0.118-2.522 0.162-3.79 0.029-0.708-1.077-0.708-1.106 0-0.059 1.268-0.118 2.522-0.162 3.79-0.015 0.295 0.265 0.56 0.56 0.56 1.947 0 3.893 0 5.84 0 0.295 0 0.56-0.251 0.56-0.56 0-1.873 0-3.76 0-5.633 0-0.295-0.251-0.56-0.56-0.56-1.165 0-2.418-0.133-3.583 0-0.472 0.059-0.811 0.501-1.15 0.811-0.442 0.398-0.885 0.811-1.342 1.209-0.531 0.487 0.251 1.268 0.782 0.782z">
            </path>
            <path
                d="M9.497 28.166c0 1.385-1.122 2.507-2.507 2.507s-2.507-1.122-2.507-2.507c0-1.385 1.122-2.507 2.507-2.507s2.507 1.122 2.507 2.507z">
            </path>
            <path fill="#000" style="fill: var(--color2, teal)"
                d="M8.936 28.166c-0.044 1.062-0.855 1.947-1.947 1.947-1.062 0-1.947-0.885-1.947-1.947s0.885-1.961 1.947-1.947c1.091 0 1.902 0.87 1.947 1.947 0.030 0.708 1.135 0.708 1.106 0-0.074-1.666-1.342-3.053-3.053-3.053-1.652 0-3.067 1.401-3.053 3.053 0 1.666 1.386 3.053 3.053 3.053 1.711 0 2.994-1.401 3.053-3.053 0.030-0.723-1.076-0.723-1.106 0z">
            </path>
            <path d="M11.812 10.101h27.635v17.725h-27.635v-17.725z">
            </path>
            <path fill="#000" style="fill: var(--color2, teal)"
                d="M39.447 27.266c-3.112 0-6.223 0-9.335 0-4.955 0-9.924 0-14.879 0-1.135 0-2.286 0-3.421 0 0.192 0.192 0.369 0.369 0.56 0.56 0-5.161 0-10.337 0-15.499 0-0.737 0-1.475 0-2.212-0.192 0.192-0.369 0.369-0.56 0.56 3.112 0 6.223 0 9.335 0 4.955 0 9.924 0 14.879 0 1.135 0 2.286 0 3.421 0-0.192-0.192-0.369-0.369-0.56-0.56 0 5.161 0 10.337 0 15.499 0 0.737 0 1.475 0 2.212 0 0.708 1.106 0.708 1.106 0 0-5.161 0-10.337 0-15.499 0-0.737 0-1.475 0-2.212 0-0.295-0.251-0.56-0.56-0.56-3.112 0-6.223 0-9.335 0-4.955 0-9.924 0-14.879 0-1.135 0-2.286 0-3.421 0-0.295 0-0.56 0.251-0.56 0.56 0 5.161 0 10.337 0 15.499 0 0.737 0 1.475 0 2.212 0 0.295 0.251 0.56 0.56 0.56 3.112 0 6.223 0 9.335 0 4.955 0 9.924 0 14.879 0 1.135 0 2.286 0 3.421 0 0.723-0.015 0.723-1.121 0.015-1.121z">
            </path>
            <path
                d="M36.011 28.417c0 1.385-1.122 2.507-2.507 2.507s-2.507-1.122-2.507-2.507c0-1.385 1.122-2.507 2.507-2.507s2.507 1.122 2.507 2.507z">
            </path>
            <path fill="#000" style="fill: var(--color2, teal)"
                d="M35.451 28.417c-0.044 1.062-0.855 1.947-1.947 1.947-1.062 0-1.947-0.885-1.947-1.947s0.885-1.961 1.947-1.947c1.091 0 1.902 0.885 1.947 1.947 0.029 0.708 1.135 0.708 1.106 0-0.074-1.666-1.342-3.053-3.053-3.053-1.652 0-3.067 1.401-3.053 3.053 0 1.666 1.386 3.053 3.053 3.053 1.711 0 2.994-1.401 3.053-3.053 0.029-0.708-1.077-0.708-1.106 0z">
            </path>
            <path fill="#000" style="fill: var(--color2, teal)"
                d="M32.074 24.863c-2.817 0-5.633 0-8.45 0-0.708 0-0.708 1.106 0 1.106 2.817 0 5.633 0 8.45 0 0.723 0 0.723-1.106 0-1.106v0z">
            </path>
            <path
                d="M29.287 6.238c0-2.433-1.386-4.542-3.421-5.574v6.562h-5.677v-6.282c-1.755 1.106-3.421 3.067-3.421 5.294 0 2.625 1.622 4.881 3.923 5.81v17.637c0 0.826 0.678 1.504 1.504 1.504h1.666c0.826 0 1.504-0.678 1.504-1.504v-17.637c2.286-0.929 3.923-3.185 3.923-5.81z">
            </path>
            <path fill="#000" style="fill: var(--color2, teal)"
                d="M29.832 6.238c-0.044-2.566-1.43-4.852-3.701-6.061-0.369-0.192-0.826 0.044-0.826 0.472 0 2.197 0 4.38 0 6.577 0.192-0.192 0.369-0.369 0.56-0.56-1.888 0-3.79 0-5.677 0 0.192 0.192 0.369 0.369 0.56 0.56 0-2.094 0-4.188 0-6.282 0-0.398-0.472-0.708-0.826-0.472-2.212 1.43-3.967 3.775-3.657 6.533 0.28 2.448 1.873 4.571 4.159 5.53-0.088-0.162-0.177-0.324-0.28-0.472 0 5.692 0 11.399 0 17.091 0 0.28-0.015 0.56 0.029 0.826 0.162 1.15 1.121 1.755 2.212 1.784 0.87 0.015 1.932 0.147 2.684-0.383 0.605-0.428 0.841-1.076 0.855-1.799 0.059-2.846 0-5.692 0-8.538 0-2.994 0-5.972 0-8.966-0.088 0.162-0.177 0.324-0.28 0.472 2.536-1.106 4.144-3.569 4.188-6.312 0.015-0.708-1.091-0.708-1.106 0-0.044 2.389-1.46 4.409-3.657 5.338-0.177 0.074-0.28 0.31-0.28 0.472 0 5.5 0 11.001 0 16.487 0 0.973 0.162 2.065-1.18 2.094-0.87 0.029-2.256 0.236-2.389-0.944-0.015-0.177 0-0.369 0-0.546 0-2.979 0-5.958 0-8.936 0-2.713 0-5.441 0-8.155 0-0.177-0.103-0.398-0.28-0.472-1.902-0.811-3.303-2.463-3.598-4.542-0.324-2.374 1.194-4.365 3.097-5.604-0.28-0.162-0.56-0.324-0.826-0.472 0 2.094 0 4.188 0 6.282 0 0.295 0.251 0.56 0.56 0.56 1.888 0 3.79 0 5.677 0 0.295 0 0.56-0.251 0.56-0.56 0-2.197 0-4.38 0-6.577-0.28 0.162-0.56 0.324-0.826 0.472 1.932 1.017 3.112 2.92 3.156 5.102 0 0.708 1.106 0.708 1.091 0z">
            </path>
            <path fill="#000" style="fill: var(--color2, teal)"
                d="M11.252 13.862c0 4.041 0 8.066 0 12.107 0 0.575 0 1.135 0 1.711 0 0.708 1.106 0.708 1.106 0 0-4.041 0-8.066 0-12.107 0-0.575 0-1.135 0-1.711 0-0.708-1.106-0.708-1.106 0v0z">
            </path>
            <path
                d="M33.489 17.239l-3.849-4.911c0 0-1.017-0.811-1.563-0.383-0.31 0.236-3.274 3.097-3.274 3.097s-0.605 1.475 0 2.197c0.605 0.723 1.681 0.044 2.669-0.708s1.519-1.091 1.519-1.091l4.498 1.799z">
            </path>
            <path
                d="M33.873 16.841c-0.752-0.944-1.489-1.902-2.241-2.846-0.619-0.782-1.209-1.888-2.109-2.389-0.708-0.383-1.386-0.457-2.006 0.088-0.59 0.516-1.15 1.076-1.711 1.607-0.442 0.428-0.988 0.841-1.386 1.327-0.383 0.457-0.487 1.268-0.457 1.843 0.059 1.327 1.18 1.917 2.359 1.416 1.076-0.457 1.947-1.342 2.935-1.961-0.147 0.015-0.28 0.044-0.428 0.059 1.504 0.59 2.994 1.194 4.498 1.784 0.664 0.265 0.944-0.811 0.295-1.062-1.312-0.516-2.625-1.047-3.937-1.563-0.546-0.221-0.811-0.295-1.312 0.059-0.546 0.383-1.076 0.796-1.622 1.18-0.605 0.413-1.74 1.106-1.681-0.162 0.015-0.236 0.074-0.472 0.133-0.693 0.015-0.059 0.074-0.162 0.074-0.236 0.015-0.192 0.221 0.044-0.103 0.147 0.162-0.044 0.383-0.369 0.501-0.487 0.678-0.649 1.342-1.298 2.035-1.932 0.162-0.147 0.457-0.56 0.678-0.619 0.251-0.074 0.737 0.221 0.944 0.413-0.221-0.192 0.088 0.162 0.133 0.221 0.221 0.28 0.442 0.56 0.664 0.841 0.988 1.253 1.976 2.507 2.949 3.76 0.457 0.546 1.239-0.236 0.796-0.796z">
            </path>
            <path fill="#000" style="fill: var(--color2, teal)"
                d="M33.902 16.841c-0.752-0.944-1.489-1.902-2.241-2.846-0.619-0.782-1.209-1.888-2.109-2.389-0.708-0.383-1.386-0.457-2.006 0.088-0.59 0.516-1.15 1.076-1.711 1.607-0.442 0.428-0.988 0.841-1.386 1.327-0.383 0.457-0.487 1.268-0.457 1.843 0.059 1.327 1.18 1.917 2.359 1.416 1.076-0.457 1.947-1.342 2.935-1.961 0.605-0.383 0.044-1.342-0.56-0.959-0.634 0.398-1.224 0.885-1.843 1.327-0.339 0.251-1.135 0.9-1.563 0.619-0.369-0.251-0.206-0.9-0.118-1.268 0.029-0.103 0.103-0.251 0.118-0.369 0.015-0.192-0.044 0.133-0.088 0.133 0.088-0.015 0.265-0.265 0.339-0.324 0.487-0.457 0.959-0.929 1.445-1.386 0.398-0.383 0.841-0.959 1.327-1.239 0.221-0.133 0.324-0.088 0.605 0.059 0.118 0.059 0.251 0.133 0.354 0.221 0.162 0.118-0.044-0.044 0 0 0.649 0.723 1.209 1.548 1.814 2.315 0.664 0.855 1.342 1.711 2.006 2.566 0.428 0.56 1.209-0.221 0.782-0.782v0z">
            </path>
            <path
                d="M17.784 13.523l3.731 0.339c0 0 1.416 0.059 1.711 0.826s0.221 1.681-0.457 1.932c-0.678 0.251-6.267 0.088-6.651 0-0.369-0.088 0.693-2.669 1.666-3.097z">
            </path>
            <path fill="#000" style="fill: var(--color2, teal)"
                d="M17.784 14.083c0.914 0.088 1.843 0.162 2.758 0.251 0.649 0.059 1.947-0.015 2.212 0.693 0.236 0.634 0.029 1.077-0.59 1.121-0.575 0.044-1.15 0.044-1.725 0.044-1.253 0-2.507-0.015-3.746-0.088-0.088 0-0.206-0.029-0.295-0.015-0.177 0.015-0.103-0.029-0.103 0-0.029 0.088 0.31 0.31 0.31 0.324 0.015 0 0.015-0.133 0.029-0.133 0.074-0.118 0.088-0.31 0.133-0.428 0.251-0.649 0.649-1.519 1.298-1.843 0.634-0.324 0.074-1.268-0.56-0.959-0.737 0.369-1.239 1.209-1.578 1.947-0.236 0.501-0.708 1.43-0.28 1.947 0.295 0.354 0.944 0.28 1.357 0.295 0.855 0.044 1.711 0.059 2.566 0.074 0.811 0.015 1.622 0.015 2.433-0.029 0.619-0.044 1.253-0.088 1.637-0.664 0.501-0.752 0.383-2.035-0.28-2.654-0.501-0.457-1.209-0.575-1.858-0.634-1.239-0.118-2.492-0.221-3.731-0.339-0.693-0.088-0.693 1.018 0.015 1.091z">
            </path>
            <path d="M38.533 26.19h-5.559v-12.151h5.441z"></path>
            <path fill="#000" style="fill: var(--color2, teak)"
                d="M38.533 25.63c-1.858 0-3.716 0-5.574 0 0.192 0.192 0.369 0.369 0.56 0.56 0-4.055 0-8.096 0-12.151-0.192 0.192-0.369 0.369-0.56 0.56 1.814 0 3.628 0 5.441 0 0.708 0 0.708-1.106 0-1.106-1.814 0-3.628 0-5.441 0-0.295 0-0.56 0.251-0.56 0.56 0 4.055 0 8.096 0 12.151 0 0.295 0.251 0.56 0.56 0.56 1.858 0 3.716 0 5.574 0 0.723-0.029 0.723-1.135 0-1.135v0z">
            </path>
            <path
                d="M16.133 16.619l6.267 0.133c0 0 1.091 0.28 1.091 1.283s-0.029 1.504-0.708 1.666c-0.678 0.162-6.326 0.339-6.326 0.339s-0.752-0.664-0.752-1.711c0-1.047 0.428-1.711 0.428-1.711z">
            </path>
            <path fill="#1d1e1d" style="fill: var(--color3, teal)"
                d="M16.133 17.165c1.947 0.044 3.908 0.088 5.854 0.118 0.118 0 0.236 0 0.354 0.015s-0.044 0-0.074-0.015c0.044 0.015 0.118 0.029 0.162 0.059 0.28 0.221 0.457 0.295 0.516 0.693 0.044 0.265 0.059 0.885-0.162 1.091-0.206 0.177-0.826 0.118-1.135 0.147-0.649 0.044-1.298 0.074-1.961 0.103-1.076 0.044-2.138 0.088-3.215 0.118 0.133 0.059 0.265 0.103 0.398 0.162-0.737-0.678-0.737-1.917-0.236-2.758 0.369-0.605-0.59-1.165-0.959-0.56-0.516 0.855-0.664 2.065-0.31 2.994 0.206 0.546 0.575 1.209 1.209 1.253 1.593 0.103 3.288-0.103 4.881-0.206 0.59-0.029 1.357 0 1.888-0.31 0.811-0.472 0.9-1.888 0.59-2.684-0.516-1.342-1.873-1.209-3.038-1.239-1.578-0.029-3.171-0.074-4.748-0.103-0.737 0-0.737 1.106-0.015 1.121z">
            </path>
            <path
                d="M16.693 20.055l5.648-0.251c0 0 1.504 0.133 1.725 0.973s-0.103 1.829-0.575 1.976c-1.445 0.487-3.2 0.472-3.2 0.472h-3.023c0 0-1.607-1.504-0.575-3.171z">
            </path>
            <path fill="#1d1e1d" style="fill: var(--color3, teal)"
                d="M16.693 20.601c1.091-0.044 2.168-0.103 3.259-0.147 0.811-0.029 1.991-0.221 2.64-0.059 0.339 0.088 0.767 0.177 0.944 0.516 0.133 0.251 0.059 0.708-0.029 0.959-0.133 0.354-0.265 0.398-0.619 0.487-0.826 0.221-1.711 0.31-2.581 0.31-1.018 0.015-2.020 0-3.038 0 0.133 0.059 0.265 0.103 0.398 0.162-0.693-0.664-0.973-1.637-0.487-2.507 0.339-0.619-0.605-1.18-0.959-0.56-0.546 0.988-0.531 2.065 0.044 3.053 0.265 0.457 0.56 0.914 1.121 0.959 1.194 0.118 2.492 0.044 3.687-0.029 0.973-0.074 2.595-0.088 3.215-0.973 0.531-0.767 0.619-2.123-0.088-2.802-0.855-0.841-2.065-0.708-3.156-0.664-1.445 0.059-2.905 0.133-4.35 0.192-0.723 0.029-0.723 1.135 0 1.106z">
            </path>
            <path
                d="M17.209 23.137c0 0 6.341-0.31 6.665 0.428s0.177 1.489-0.147 1.814c-0.487 0.487-0.973 0.428-2.713 0.501s-3.406 0-3.731-0.678c-0.531-1.121-0.074-2.065-0.074-2.065z">
            </path>
            <path fill="#1d1e1d" style="fill: var(--color3, teal)"
                d="M17.209 23.683c1.888-0.088 3.982-0.265 5.854 0.118 0.118 0.029 0.339 0.044 0.413 0.118 0.088 0.088 0.044 0.9-0.162 1.106-0.383 0.369-1.194 0.265-1.666 0.28-1.062 0.044-2.227 0.177-3.274-0.088-0.56-0.133-0.723-0.383-0.782-0.973-0.015-0.192 0-0.398 0.029-0.59 0.015-0.044 0.147-0.428 0.059-0.251 0.28-0.649-0.664-1.209-0.959-0.56-0.28 0.619-0.324 1.342-0.162 1.991 0.221 0.855 0.752 1.283 1.593 1.46 1.135 0.236 2.315 0.147 3.465 0.103 0.649-0.029 1.416 0.015 2.006-0.295 1.076-0.56 1.46-2.669 0.206-3.244-1.018-0.457-2.418-0.354-3.51-0.369-1.047-0.015-2.094 0.015-3.141 0.059-0.678 0.059-0.693 1.165 0.029 1.135z">
            </path>
            <path fill="#000" style="fill: var(--color2, teal)"
                d="M44.667 22.341c-2.433 0-4.866 0-7.3 0-0.708 0-0.708 1.106 0 1.106 2.433 0 4.866 0 7.3 0 0.708 0 0.708-1.106 0-1.106v0z">
            </path>
            <path fill="#000" style="fill: var(--color2, teal)"
                d="M36.557 21.029c2.433 0 4.866 0 7.3 0 0.708 0 0.708-1.106 0-1.106-2.433 0-4.866 0-7.3 0-0.708 0-0.708 1.106 0 1.106v0z">
            </path>
            <path fill="#000" style="fill: var(--color2, teal)"
                d="M43.060 17.519c-2.433 0-4.866 0-7.3 0-0.708 0-0.708 1.106 0 1.106 2.433 0 4.866 0 7.3 0 0.708 0 0.708-1.106 0-1.106v0z">
            </path>
        </symbol>
        <symbol id="icon-phone-contact" viewBox="0 0 24 24">
            <path
                d="M6.609 10.781q2.25 4.359 6.609 6.609l2.203-2.203q0.469-0.469 1.031-0.234 1.688 0.563 3.563 0.563 0.422 0 0.703 0.281t0.281 0.703v3.516q0 0.422-0.281 0.703t-0.703 0.281q-7.031 0-12.023-4.992t-4.992-12.023q0-0.422 0.281-0.703t0.703-0.281h3.516q0.422 0 0.703 0.281t0.281 0.703q0 1.875 0.563 3.563 0.188 0.609-0.234 1.031z">
            </path>
        </symbol>
        <symbol id="icon-mail" viewBox="0 0 24 24">
            <path
                d="M12 11.016l8.016-5.016h-16.031zM20.016 18v-9.984l-8.016 4.969-8.016-4.969v9.984h16.031zM20.016 3.984q0.797 0 1.383 0.609t0.586 1.406v12q0 0.797-0.586 1.406t-1.383 0.609h-16.031q-0.797 0-1.383-0.609t-0.586-1.406v-12q0-0.797 0.586-1.406t1.383-0.609h16.031z">
            </path>
        </symbol>

        <symbol id="icon-telegram" viewBox="0 0 32 32">
            <path
                d="M26.831 4.25c-0.347 0.015-0.67 0.116-0.954 0.231-0.266 0.107-1.284 0.544-2.887 1.231-1.605 0.688-3.729 1.6-5.996 2.575-4.533 1.949-9.629 4.144-12.24 5.267-0.098 0.042-0.441 0.152-0.804 0.435s-0.75 0.872-0.75 1.527c0 0.528 0.252 1.053 0.569 1.367s0.652 0.468 0.94 0.585c1.042 0.425 4.275 1.748 4.885 1.998 0.215 0.658 1.385 4.237 1.656 5.115 0.179 0.579 0.349 0.941 0.571 1.229 0.111 0.144 0.24 0.27 0.396 0.369 0.062 0.040 0.131 0.070 0.2 0.098l0.004 0.002c0.016 0.006 0.030 0.017 0.046 0.023 0.030 0.011 0.051 0.012 0.092 0.021 0.162 0.052 0.327 0.085 0.473 0.085 0.624 0 1.006-0.344 1.006-0.344l0.023-0.017 3.21-2.777 3.894 3.683c0.055 0.078 0.566 0.779 1.694 0.779 0.67 0 1.201-0.336 1.542-0.694s0.553-0.734 0.644-1.206v-0.002c0.084-0.447 3.673-18.869 3.673-18.869l-0.006 0.025c0.105-0.479 0.133-0.926 0.017-1.367s-0.421-0.863-0.8-1.090c-0.379-0.227-0.749-0.297-1.096-0.281zM26.631 6.479c-0.005 0.031 0.004 0.015-0.004 0.052l-0.004 0.025c0 0-3.544 18.187-3.675 18.879 0.010-0.052-0.034 0.052-0.079 0.115-0.064-0.044-0.194-0.1-0.194-0.1l-0.021-0.023-5.319-5.031-3.76 3.25 1.119-4.479c0 0 6.993-7.239 7.415-7.66 0.339-0.337 0.41-0.455 0.41-0.571 0-0.156-0.081-0.269-0.262-0.269-0.163 0-0.383 0.159-0.5 0.233-1.529 0.974-8.24 4.886-11.248 6.635-0.478-0.196-3.799-1.555-4.925-2.015 0.009-0.004 0.006-0.002 0.015-0.006 2.611-1.123 7.705-3.318 12.238-5.267 2.266-0.975 4.392-1.887 5.996-2.575 1.579-0.677 2.676-1.143 2.8-1.194z">
            </path>
        </symbol>
        <symbol id="icon-viber" viewBox="0 0 32 32">
            <path
                d="M15.633 1.92c-0.873 0.005-1.748 0.058-2.63 0.165-1.688 0.208-3.36 0.553-4.965 1.29-2.553 1.173-4.362 3.162-4.888 6.055-0.223 1.22-0.402 2.457-0.505 3.703-0.197 2.418-0.075 4.843 0.61 7.225 0.54 1.878 1.535 3.565 3.277 4.66 0.737 0.462 1.71 0.688 2.217 0.922 0.143 0.067 0.178 0.108 0.185 0.117 0.008 0.008 0.027 0.025 0.025 0.175-0.018 1.53 0 4.49 0 4.49l0.002 0.637h1.143l0.185-0.18c0 0 2.902-2.793 3.953-3.942 0.19-0.205 0.287-0.32 0.307-0.332 0.018-0.012-0.012-0.020 0.182-0.025 1.377-0.027 2.752-0.080 4.127-0.155 1.813-0.1 3.66-0.273 5.438-1.015 1.547-0.648 2.84-1.705 3.622-3.29 0.8-1.625 1.227-3.348 1.387-5.13 0.265-2.967 0.172-5.94-0.648-8.87-0.483-1.718-1.453-3.17-2.94-4.195-1.78-1.225-3.788-1.685-5.753-1.978-1.148-0.17-2.303-0.282-3.462-0.317-0.29-0.008-0.58-0.012-0.873-0.010zM16.47 3.21c1.102 0.030 2.205 0.138 3.31 0.303 1.895 0.282 3.683 0.713 5.215 1.768 1.242 0.855 2.017 2.010 2.433 3.482 0.765 2.74 0.863 5.547 0.605 8.415-0.148 1.652-0.54 3.21-1.262 4.677-0.637 1.295-1.633 2.117-2.968 2.675-1.55 0.648-3.235 0.82-5.010 0.918-1.36 0.075-2.723 0.125-4.085 0.152-0.342 0.008-0.678 0.098-0.915 0.273s-0.345 0.337-0.492 0.497c-0.75 0.82-2.245 2.262-3.060 3.053-0.005-0.955-0.012-2.11 0-3.175 0.005-0.328-0.070-0.663-0.258-0.927s-0.445-0.425-0.693-0.54c-0.723-0.335-1.668-0.59-2.078-0.848-1.433-0.9-2.245-2.25-2.728-3.93-0.632-2.198-0.752-4.46-0.565-6.762 0.1-1.195 0.273-2.393 0.49-3.58 0.455-2.502 1.885-4.077 4.16-5.122 1.438-0.66 2.973-0.985 4.59-1.183 1.103-0.135 2.205-0.178 3.31-0.145zM16.74 6.4c-0.527 0-1.040 0.060-1.537 0.17-0.342 0.080-0.56 0.423-0.482 0.768s0.422 0.56 0.768 0.482c0.402-0.093 0.822-0.14 1.252-0.14 3.125 0 5.645 2.52 5.645 5.643 0 0.432-0.047 0.852-0.14 1.258-0.078 0.342 0.137 0.688 0.483 0.765s0.688-0.14 0.765-0.485c0.113-0.495 0.172-1.008 0.172-1.537 0-3.815-3.108-6.923-6.925-6.923zM10.355 7.683c-0.105-0.005-0.213 0.003-0.325 0.027-1.162 0.258-2.317 1.1-2.35 2.605 0.032 0.21 0.030 0.435 0.107 0.625 0.38 0.93 0.71 1.89 1.185 2.77 2.313 4.275 5.81 7.248 10.268 9.135 0.532 0.225 1.082 0.273 1.62 0.047 0.74-0.308 1.367-0.782 1.785-1.465 0.573-0.938 0.58-1.587-0.363-2.28-0.617-0.455-1.225-0.922-1.85-1.367-0.953-0.675-1.982-0.793-2.692 0.392-0.038 0.060-0.093 0.11-0.14 0.16-0.365 0.387-0.813 0.483-1.288 0.288-1.803-0.742-3.195-1.94-4.035-3.723-0.495-1.047-0.36-1.572 0.565-2.27 0.092-0.068 0.18-0.14 0.265-0.217 0.405-0.37 0.512-0.81 0.273-1.307-0.543-1.135-1.265-2.148-2.18-3.020-0.248-0.235-0.53-0.383-0.845-0.4zM16.73 8.32c-0.282 0-0.563 0.023-0.838 0.070-0.232 0.030-0.43 0.185-0.515 0.402-0.085 0.22-0.043 0.467 0.107 0.648 0.152 0.178 0.393 0.26 0.622 0.21 0.2-0.033 0.41-0.050 0.622-0.050 2.080 0 3.75 1.67 3.75 3.75 0 0.213-0.017 0.422-0.050 0.623-0.050 0.23 0.032 0.47 0.21 0.623 0.18 0.15 0.427 0.193 0.648 0.107 0.218-0.085 0.372-0.283 0.402-0.515 0.047-0.275 0.070-0.555 0.070-0.838 0-2.77-2.26-5.030-5.030-5.030zM16.64 10.24c-0.23-0.002-0.445 0.117-0.563 0.318-0.115 0.2-0.115 0.445 0 0.645 0.117 0.2 0.332 0.32 0.563 0.318 1.067 0 1.92 0.853 1.92 1.92-0.003 0.23 0.117 0.445 0.317 0.563 0.2 0.115 0.445 0.115 0.645 0 0.2-0.117 0.32-0.332 0.317-0.563 0-1.76-1.44-3.2-3.2-3.2z">
            </path>
        </symbol>
        <symbol id="icon-whatsapp" viewBox="0 0 32 32">
            <path
                d="M16.016 2.667c-7.341 0-13.318 5.971-13.32 13.313-0.001 2.347 0.613 4.638 1.779 6.656l-1.807 6.698 6.977-1.648c1.945 1.061 4.135 1.618 6.365 1.62h0.005c7.34 0 13.314-5.973 13.318-13.313 0.003-3.559-1.381-6.905-3.896-9.422-2.515-2.516-5.857-3.902-9.419-3.904zM16.013 5.333c2.848 0.001 5.524 1.112 7.536 3.122 2.012 2.013 3.117 4.689 3.115 7.534-0.003 5.872-4.779 10.648-10.654 10.648-1.777-0.001-3.538-0.448-5.089-1.294l-0.898-0.49-3.617 0.854 0.641-2.38 0.289-1.068-0.552-0.958c-0.931-1.611-1.423-3.452-1.422-5.323 0.003-5.869 4.78-10.646 10.651-10.646zM11.302 9.833c-0.223 0-0.583 0.083-0.888 0.417-0.305 0.332-1.167 1.136-1.167 2.773s1.193 3.22 1.359 3.443c0.165 0.221 2.302 3.688 5.685 5.021 2.811 1.108 3.382 0.889 3.992 0.833 0.611-0.055 1.97-0.803 2.247-1.581s0.278-1.446 0.195-1.583c-0.083-0.139-0.305-0.221-0.638-0.388-0.332-0.167-1.968-0.97-2.273-1.081s-0.529-0.167-0.75 0.167c-0.221 0.333-0.857 1.081-1.052 1.302-0.195 0.223-0.388 0.253-0.721 0.086-0.333-0.168-1.405-0.52-2.677-1.654-0.989-0.881-1.657-1.969-1.852-2.302-0.193-0.332-0.018-0.514 0.148-0.68 0.149-0.149 0.331-0.389 0.497-0.583 0.165-0.195 0.223-0.333 0.333-0.555s0.054-0.417-0.029-0.583c-0.083-0.167-0.73-1.81-1.026-2.469-0.249-0.553-0.513-0.566-0.75-0.576-0.193-0.008-0.414-0.008-0.635-0.008z">
            </path>
        </symbol>
        <symbol id="icon-Check_mark" viewBox="0 0 34 32">
            <path
                d="M8.352 32.007c-0.481-0.006-2.557-3.111-4.613-6.899l-3.739-6.888 0.969-0.969c0.533-0.533 1.966-0.969 3.183-0.969h2.214l2.226 7.014 8.859-9.693c4.872-5.331 10.5-10.571 12.507-11.645l3.648-1.953-7.363 8.365c-4.050 4.601-9.535 11.803-12.19 16.006s-5.221 7.636-5.702 7.63z">
            </path>

        </symbol>


    </defs>
</svg>