<svg aria-hidden="true" style="position: absolute; width: 0; height: 0; overflow: hidden;" version="1.1"
    xmlns="http://www.w3.org/2000/svg" xmlns:xlink="http://www.w3.org/1999/xlink">
    <defs>
        <symbol id="icon-pencil" viewBox="0 0 32 32">
            <path
                d="M20.109 29.113h-4.101v0.719c0 1.082 0.879 1.96 1.96 1.96h7.665c1.081 0 1.96-0.879 1.96-1.96v-27.838c0-1.081-0.879-1.96-1.96-1.96h-7.665c-1.081 0-1.96 0.879-1.96 1.96v0.719h4.101c0.542 0 0.98 0.438 0.98 0.98s-0.438 0.98-0.98 0.98h-4.101v1.983h2.078c0.542 0 0.98 0.438 0.98 0.98s-0.438 0.98-0.98 0.98h-2.078v2.156h2.078c0.542 0 0.98 0.438 0.98 0.98s-0.438 0.98-0.98 0.98h-2.078v2.156h4.101c0.542 0 0.98 0.438 0.98 0.98s-0.438 0.98-0.98 0.98h-4.101v2.111h2.078c0.542 0 0.98 0.438 0.98 0.98s-0.438 0.98-0.98 0.98h-2.078v2.156h2.078c0.542 0 0.98 0.438 0.98 0.98s-0.438 0.98-0.98 0.98h-2.078v2.111h4.101c0.542 0 0.98 0.438 0.98 0.98s-0.438 0.983-0.98 0.983z">
            </path>
            <path
                d="M7.32 31.71c0.242 0.402 0.843 0.382 1.055-0.036l2.261-4.47c0.007-0.013 0.010-0.023 0.016-0.036h-6.045c0.010 0.020 0.023 0.042 0.033 0.062l2.679 4.48z">
            </path>
            <path
                d="M9.137 0h-3.179c-0.768 0-1.552 0.771-1.552 1.523l0.007 2.764h6.283l-0.007-2.761c0-0.751-0.784-1.526-1.552-1.526z">
            </path>
            <path d="M10.702 6.251h-6.283l0.052 18.957h6.287z"></path>
        </symbol>
        <symbol id="icon-phone" viewBox="0 0 32 32">
            <path
                d="M14.43 1.362c0 0.052-0.042 0.094-0.094 0.094s-0.094-0.042-0.094-0.094c0-0.052 0.042-0.094 0.094-0.094s0.094 0.042 0.094 0.094z">
            </path>
            <path
                d="M14.706 1.362c0 0.052-0.042 0.094-0.094 0.094s-0.094-0.042-0.094-0.094c0-0.052 0.042-0.094 0.094-0.094s0.094 0.042 0.094 0.094z">
            </path>
            <path
                d="M14.981 1.362c0 0.052-0.042 0.094-0.094 0.094s-0.094-0.042-0.094-0.094c0-0.052 0.042-0.094 0.094-0.094s0.094 0.042 0.094 0.094z">
            </path>
            <path
                d="M15.256 1.362c0 0.052-0.042 0.094-0.094 0.094s-0.094-0.042-0.094-0.094c0-0.052 0.042-0.094 0.094-0.094s0.094 0.042 0.094 0.094z">
            </path>
            <path
                d="M15.532 1.362c0 0.052-0.042 0.094-0.094 0.094s-0.094-0.042-0.094-0.094c0-0.052 0.042-0.094 0.094-0.094s0.094 0.042 0.094 0.094z">
            </path>
            <path
                d="M15.808 1.362c0 0.052-0.042 0.094-0.094 0.094s-0.094-0.042-0.094-0.094c0-0.052 0.042-0.094 0.094-0.094s0.094 0.042 0.094 0.094z">
            </path>
            <path
                d="M16.084 1.362c0 0.052-0.042 0.094-0.094 0.094s-0.094-0.042-0.094-0.094c0-0.052 0.042-0.094 0.094-0.094s0.094 0.042 0.094 0.094z">
            </path>
            <path
                d="M16.359 1.362c0 0.052-0.042 0.094-0.094 0.094s-0.094-0.042-0.094-0.094c0-0.052 0.042-0.094 0.094-0.094s0.094 0.042 0.094 0.094z">
            </path>
            <path
                d="M16.634 1.362c0 0.052-0.042 0.094-0.094 0.094s-0.094-0.042-0.094-0.094c0-0.052 0.042-0.094 0.094-0.094s0.094 0.042 0.094 0.094z">
            </path>
            <path
                d="M16.912 1.362c0 0.052-0.042 0.094-0.094 0.094s-0.094-0.042-0.094-0.094c0-0.052 0.042-0.094 0.094-0.094s0.094 0.042 0.094 0.094z">
            </path>
            <path
                d="M17.187 1.362c0 0.052-0.042 0.094-0.094 0.094s-0.094-0.042-0.094-0.094c0-0.052 0.042-0.094 0.094-0.094s0.094 0.042 0.094 0.094z">
            </path>
            <path
                d="M17.462 1.362c0 0.052-0.042 0.094-0.094 0.094s-0.094-0.042-0.094-0.094c0-0.052 0.042-0.094 0.094-0.094s0.094 0.042 0.094 0.094z">
            </path>
            <path
                d="M17.738 1.362c0 0.052-0.042 0.094-0.094 0.094s-0.094-0.042-0.094-0.094c0-0.052 0.042-0.094 0.094-0.094s0.094 0.042 0.094 0.094z">
            </path>
            <path
                d="M18.014 1.362c0 0.052-0.042 0.094-0.094 0.094s-0.094-0.042-0.094-0.094c0-0.052 0.042-0.094 0.094-0.094s0.094 0.042 0.094 0.094z">
            </path>
            <path
                d="M23.092 0h-14.184c-1.146 0-2.075 0.929-2.075 2.075v27.849c0 1.146 0.929 2.075 2.075 2.075h14.184c1.146 0 2.075-0.929 2.075-2.075v-27.849c0.001-1.146-0.928-2.075-2.075-2.075zM21.641 1.232c0.126 0 0.229 0.103 0.229 0.229s-0.103 0.229-0.229 0.229c-0.127 0-0.229-0.103-0.229-0.229s0.102-0.229 0.229-0.229zM13.545 1.035h5.126c0.182 0 0.328 0.147 0.328 0.327s-0.146 0.327-0.328 0.327h-5.126c-0.182 0-0.328-0.147-0.328-0.327s0.146-0.327 0.328-0.327zM11.454 30.635h-0.505c-0.034 0-0.061-0.028-0.061-0.061s0.027-0.061 0.061-0.061h0.505c0.034 0 0.061 0.028 0.061 0.061s-0.028 0.061-0.061 0.061zM11.454 30.389h-0.505c-0.034 0-0.061-0.027-0.061-0.061s0.027-0.061 0.061-0.061h0.505c0.034 0 0.061 0.028 0.061 0.061s-0.028 0.061-0.061 0.061zM11.879 30.549c0 0.073-0.058 0.132-0.131 0.132s-0.132-0.059-0.132-0.132v-0.433h-0.83v0.433c0 0.073-0.058 0.132-0.131 0.132s-0.131-0.059-0.131-0.132v-0.564c0-0.072 0.059-0.131 0.131-0.131h1.093c0.072 0 0.131 0.059 0.131 0.131v0.564zM17.643 30.508c0 0.287-0.233 0.519-0.519 0.519h-2.27c-0.287 0-0.519-0.232-0.519-0.519v-0.454c0-0.287 0.232-0.519 0.519-0.519h2.27c0.287 0 0.519 0.232 0.519 0.519v0.454zM21.032 30.705h-0.412c-0.072 0-0.131-0.059-0.131-0.132s0.058-0.131 0.131-0.131h0.412c0.089 0 0.161-0.069 0.161-0.154s-0.072-0.153-0.161-0.153h-0.347c-0.013 0.018-0.029 0.027-0.058 0.029-0.007 0.004-0.020-0.002-0.029-0.006l-0.214-0.090c-0.026-0.011-0.043-0.037-0.043-0.065s0.017-0.054 0.043-0.065l0.214-0.090c0.026-0.011 0.057-0.005 0.077 0.015 0.003 0.003 0.006 0.006 0.008 0.009h0.35c0.233 0 0.423 0.187 0.423 0.416s-0.189 0.416-0.423 0.416zM23.784 28.887h-15.74v-25.687h15.74v25.687z">
            </path>
        </symbol>
        <symbol id="icon-production" viewBox="0 0 32 32">
            <path
                d="M4.341 8.034c-1.1 0-1.994 0.895-1.994 1.994s0.895 1.994 1.994 1.994 1.994-0.895 1.994-1.994c0-1.1-0.895-1.994-1.994-1.994zM4.341 11.068c-0.573 0-1.039-0.466-1.039-1.039s0.466-1.040 1.039-1.040c0.573 0 1.040 0.466 1.040 1.040s-0.466 1.039-1.040 1.039z">
            </path>
            <path
                d="M19.348 22.838c1.324 0 2.402-1.077 2.402-2.402s-1.077-2.402-2.402-2.402c-1.324 0-2.402 1.077-2.402 2.402s1.077 2.402 2.402 2.402zM19.348 18.989c0.798 0 1.447 0.649 1.447 1.447s-0.649 1.447-1.447 1.447-1.447-0.649-1.447-1.447c0-0.798 0.649-1.447 1.447-1.447z">
            </path>
            <path
                d="M29.362 26.689h-4.517l-1.255-3.715c1.475-2.46 0.556-5.656-1.996-6.96l-11.080-5.662 5.839-4.174c1.975 0.662 1.882 0.661 2.023 0.661 0.537 0 0.663-0.756 0.154-0.929-2.153-0.867-3.285-0.744-3.803-1.929-0.702-1.606 1.048-3.224 2.6-2.35l5.995 3.377-0.979 2.199-1.991-0.677c-0.598-0.204-0.906 0.7-0.307 0.904l2.006 0.682c0.012 0.439 0.299 0.814 0.702 0.951l0.873 0.297c0.333 0.113 0.684 0.050 0.949-0.146l1.224 1.408c0.172 0.198 0.416 0.303 0.662 0.303 0.396 0 0.549-0.22 1.363-0.678 0.54-0.327 0.045-1.144-0.495-0.816l-0.852 0.517-1.377-1.584 0.905-2.033 2.127 0.012 0.163 0.983c0.105 0.634 1.045 0.462 0.942-0.157l-0.174-1.046c-0.070-0.423-0.433-0.732-0.861-0.735l-1.869-0.011c0.001-0.364-0.191-0.714-0.529-0.904l-0.803-0.453c-0.387-0.218-0.882-0.168-1.218 0.149l-5.987-3.372c-1.192-0.671-2.695-0.384-3.556 0.682l-9.739 4.21c-2.453-0.088-4.499 1.881-4.499 4.339 0 2.796 2.626 4.884 5.365 4.219l9.649 8.929-1.187 3.512h-1.361c-0.631 0-0.632 0.955 0 0.955h16.896c0.928 0 1.683 0.755 1.683 1.683v1.083c0 0.102-0.083 0.184-0.184 0.184h-22.444c-0.101 0-0.184-0.083-0.184-0.184v-1.083c0-0.928 0.755-1.683 1.683-1.683h0.64c0.631 0 0.632-0.955 0-0.955h-0.64c-1.455 0-2.638 1.183-2.638 2.638v1.083c0 0.628 0.511 1.139 1.139 1.139h22.444c0.628 0 1.139-0.511 1.139-1.139v-1.083c0-1.455-1.183-2.638-2.638-2.638zM24.53 4.854l0.804 0.453c0.037 0.021 0.051 0.065 0.034 0.104l-1.338 3.005c-0.017 0.039-0.060 0.057-0.1 0.044l-0.873-0.297c-0.059-0.022-0.060-0.083-0.048-0.11l1.407-3.16c0.012-0.027 0.039-0.077 0.114-0.038zM13.655 2.772c-0.214 1.269 0.458 2.495 1.599 3.017l-5.698 4.073-0.92-0.47c-0.221-1.501-1.214-2.755-2.561-3.344zM0.955 10.028c0-1.867 1.519-3.387 3.386-3.387s3.387 1.519 3.387 3.387-1.519 3.386-3.387 3.386c-1.867 0-3.386-1.519-3.386-3.386zM8.66 10.477l12.499 6.387c2.161 1.105 2.848 3.865 1.46 5.854-1.393 1.994-4.222 2.29-5.998 0.646l-10.258-9.493c1.253-0.662 2.146-1.919 2.297-3.393zM15.781 23.887c0.090 0.058 1.594 1.735 4.087 1.467 1.156-0.125 2.221-0.649 3.020-1.47l0.948 2.805h-9.002z">
            </path>
        </symbol>
        <symbol id="icon-delivery" viewBox="0 0 45 32">
            <path d="M11.812 27.679h-10.691v-9.688l5.677-4.129h5.014z">
            </path>
            <!--  #283036-->
            <path fill="#000" style="fill: var(--color2, teal)"
                d="M11.812 27.119c-3.569 0-7.123 0-10.691 0 0.177 0.192 0.369 0.369 0.546 0.56 0-3.229 0-6.459 0-9.688-0.088 0.162-0.177 0.324-0.28 0.472 1.77-1.298 3.539-2.581 5.324-3.878 0.029-0.030 0.324-0.206 0.324-0.236 0 0.088-0.398-0.015-0.118 0.059 0.472 0.103 1.091 0 1.578 0 1.106 0 2.197 0 3.303 0 0.708 0 0.708-1.106 0-1.106-1.607 0-3.215-0.044-4.822 0-0.457 0.015-0.678 0.221-1.032 0.487-0.752 0.546-1.519 1.106-2.271 1.652s-1.519 1.106-2.271 1.652c-0.369 0.265-0.782 0.457-0.841 0.944-0.059 0.56 0 1.15 0 1.711 0 1.003 0 2.006 0 2.994 0 1.637 0 3.274 0 4.911 0 0.295 0.251 0.56 0.56 0.56 3.569 0 7.123 0 10.691 0 0.708 0.015 0.708-1.091 0-1.091v0z">
            </path>
            <path d="M4.041 18.964l2.050-1.858h3.628v5.648h-5.84z"></path>
            <path fill="#000" style="fill: var(--color2, teal)"
                d="M4.439 19.347c0.678-0.619 1.371-1.239 2.050-1.843-0.133 0.059-0.265 0.103-0.398 0.162 1.209 0 2.418 0 3.628 0-0.192-0.192-0.369-0.369-0.546-0.56 0 1.873 0 3.76 0 5.633 0.192-0.192 0.369-0.369 0.546-0.56-1.947 0-3.893 0-5.84 0 0.192 0.192 0.369 0.369 0.56 0.56 0.059-1.268 0.118-2.522 0.162-3.79 0.029-0.708-1.077-0.708-1.106 0-0.059 1.268-0.118 2.522-0.162 3.79-0.015 0.295 0.265 0.56 0.56 0.56 1.947 0 3.893 0 5.84 0 0.295 0 0.56-0.251 0.56-0.56 0-1.873 0-3.76 0-5.633 0-0.295-0.251-0.56-0.56-0.56-1.165 0-2.418-0.133-3.583 0-0.472 0.059-0.811 0.501-1.15 0.811-0.442 0.398-0.885 0.811-1.342 1.209-0.531 0.487 0.251 1.268 0.782 0.782z">
            </path>
            <path
                d="M9.497 28.166c0 1.385-1.122 2.507-2.507 2.507s-2.507-1.122-2.507-2.507c0-1.385 1.122-2.507 2.507-2.507s2.507 1.122 2.507 2.507z">
            </path>
            <path fill="#000" style="fill: var(--color2, teal)"
                d="M8.936 28.166c-0.044 1.062-0.855 1.947-1.947 1.947-1.062 0-1.947-0.885-1.947-1.947s0.885-1.961 1.947-1.947c1.091 0 1.902 0.87 1.947 1.947 0.030 0.708 1.135 0.708 1.106 0-0.074-1.666-1.342-3.053-3.053-3.053-1.652 0-3.067 1.401-3.053 3.053 0 1.666 1.386 3.053 3.053 3.053 1.711 0 2.994-1.401 3.053-3.053 0.030-0.723-1.076-0.723-1.106 0z">
            </path>
            <path d="M11.812 10.101h27.635v17.725h-27.635v-17.725z">
            </path>
            <path fill="#000" style="fill: var(--color2, teal)"
                d="M39.447 27.266c-3.112 0-6.223 0-9.335 0-4.955 0-9.924 0-14.879 0-1.135 0-2.286 0-3.421 0 0.192 0.192 0.369 0.369 0.56 0.56 0-5.161 0-10.337 0-15.499 0-0.737 0-1.475 0-2.212-0.192 0.192-0.369 0.369-0.56 0.56 3.112 0 6.223 0 9.335 0 4.955 0 9.924 0 14.879 0 1.135 0 2.286 0 3.421 0-0.192-0.192-0.369-0.369-0.56-0.56 0 5.161 0 10.337 0 15.499 0 0.737 0 1.475 0 2.212 0 0.708 1.106 0.708 1.106 0 0-5.161 0-10.337 0-15.499 0-0.737 0-1.475 0-2.212 0-0.295-0.251-0.56-0.56-0.56-3.112 0-6.223 0-9.335 0-4.955 0-9.924 0-14.879 0-1.135 0-2.286 0-3.421 0-0.295 0-0.56 0.251-0.56 0.56 0 5.161 0 10.337 0 15.499 0 0.737 0 1.475 0 2.212 0 0.295 0.251 0.56 0.56 0.56 3.112 0 6.223 0 9.335 0 4.955 0 9.924 0 14.879 0 1.135 0 2.286 0 3.421 0 0.723-0.015 0.723-1.121 0.015-1.121z">
            </path>
            <path
                d="M36.011 28.417c0 1.385-1.122 2.507-2.507 2.507s-2.507-1.122-2.507-2.507c0-1.385 1.122-2.507 2.507-2.507s2.507 1.122 2.507 2.507z">
            </path>
            <path fill="#000" style="fill: var(--color2, teal)"
                d="M35.451 28.417c-0.044 1.062-0.855 1.947-1.947 1.947-1.062 0-1.947-0.885-1.947-1.947s0.885-1.961 1.947-1.947c1.091 0 1.902 0.885 1.947 1.947 0.029 0.708 1.135 0.708 1.106 0-0.074-1.666-1.342-3.053-3.053-3.053-1.652 0-3.067 1.401-3.053 3.053 0 1.666 1.386 3.053 3.053 3.053 1.711 0 2.994-1.401 3.053-3.053 0.029-0.708-1.077-0.708-1.106 0z">
            </path>
            <path fill="#000" style="fill: var(--color2, teal)"
                d="M32.074 24.863c-2.817 0-5.633 0-8.45 0-0.708 0-0.708 1.106 0 1.106 2.817 0 5.633 0 8.45 0 0.723 0 0.723-1.106 0-1.106v0z">
            </path>
            <path
                d="M29.287 6.238c0-2.433-1.386-4.542-3.421-5.574v6.562h-5.677v-6.282c-1.755 1.106-3.421 3.067-3.421 5.294 0 2.625 1.622 4.881 3.923 5.81v17.637c0 0.826 0.678 1.504 1.504 1.504h1.666c0.826 0 1.504-0.678 1.504-1.504v-17.637c2.286-0.929 3.923-3.185 3.923-5.81z">
            </path>
            <path fill="#000" style="fill: var(--color2, teal)"
                d="M29.832 6.238c-0.044-2.566-1.43-4.852-3.701-6.061-0.369-0.192-0.826 0.044-0.826 0.472 0 2.197 0 4.38 0 6.577 0.192-0.192 0.369-0.369 0.56-0.56-1.888 0-3.79 0-5.677 0 0.192 0.192 0.369 0.369 0.56 0.56 0-2.094 0-4.188 0-6.282 0-0.398-0.472-0.708-0.826-0.472-2.212 1.43-3.967 3.775-3.657 6.533 0.28 2.448 1.873 4.571 4.159 5.53-0.088-0.162-0.177-0.324-0.28-0.472 0 5.692 0 11.399 0 17.091 0 0.28-0.015 0.56 0.029 0.826 0.162 1.15 1.121 1.755 2.212 1.784 0.87 0.015 1.932 0.147 2.684-0.383 0.605-0.428 0.841-1.076 0.855-1.799 0.059-2.846 0-5.692 0-8.538 0-2.994 0-5.972 0-8.966-0.088 0.162-0.177 0.324-0.28 0.472 2.536-1.106 4.144-3.569 4.188-6.312 0.015-0.708-1.091-0.708-1.106 0-0.044 2.389-1.46 4.409-3.657 5.338-0.177 0.074-0.28 0.31-0.28 0.472 0 5.5 0 11.001 0 16.487 0 0.973 0.162 2.065-1.18 2.094-0.87 0.029-2.256 0.236-2.389-0.944-0.015-0.177 0-0.369 0-0.546 0-2.979 0-5.958 0-8.936 0-2.713 0-5.441 0-8.155 0-0.177-0.103-0.398-0.28-0.472-1.902-0.811-3.303-2.463-3.598-4.542-0.324-2.374 1.194-4.365 3.097-5.604-0.28-0.162-0.56-0.324-0.826-0.472 0 2.094 0 4.188 0 6.282 0 0.295 0.251 0.56 0.56 0.56 1.888 0 3.79 0 5.677 0 0.295 0 0.56-0.251 0.56-0.56 0-2.197 0-4.38 0-6.577-0.28 0.162-0.56 0.324-0.826 0.472 1.932 1.017 3.112 2.92 3.156 5.102 0 0.708 1.106 0.708 1.091 0z">
            </path>
            <path fill="#000" style="fill: var(--color2, teal)"
                d="M11.252 13.862c0 4.041 0 8.066 0 12.107 0 0.575 0 1.135 0 1.711 0 0.708 1.106 0.708 1.106 0 0-4.041 0-8.066 0-12.107 0-0.575 0-1.135 0-1.711 0-0.708-1.106-0.708-1.106 0v0z">
            </path>
            <path
                d="M33.489 17.239l-3.849-4.911c0 0-1.017-0.811-1.563-0.383-0.31 0.236-3.274 3.097-3.274 3.097s-0.605 1.475 0 2.197c0.605 0.723 1.681 0.044 2.669-0.708s1.519-1.091 1.519-1.091l4.498 1.799z">
            </path>
            <path
                d="M33.873 16.841c-0.752-0.944-1.489-1.902-2.241-2.846-0.619-0.782-1.209-1.888-2.109-2.389-0.708-0.383-1.386-0.457-2.006 0.088-0.59 0.516-1.15 1.076-1.711 1.607-0.442 0.428-0.988 0.841-1.386 1.327-0.383 0.457-0.487 1.268-0.457 1.843 0.059 1.327 1.18 1.917 2.359 1.416 1.076-0.457 1.947-1.342 2.935-1.961-0.147 0.015-0.28 0.044-0.428 0.059 1.504 0.59 2.994 1.194 4.498 1.784 0.664 0.265 0.944-0.811 0.295-1.062-1.312-0.516-2.625-1.047-3.937-1.563-0.546-0.221-0.811-0.295-1.312 0.059-0.546 0.383-1.076 0.796-1.622 1.18-0.605 0.413-1.74 1.106-1.681-0.162 0.015-0.236 0.074-0.472 0.133-0.693 0.015-0.059 0.074-0.162 0.074-0.236 0.015-0.192 0.221 0.044-0.103 0.147 0.162-0.044 0.383-0.369 0.501-0.487 0.678-0.649 1.342-1.298 2.035-1.932 0.162-0.147 0.457-0.56 0.678-0.619 0.251-0.074 0.737 0.221 0.944 0.413-0.221-0.192 0.088 0.162 0.133 0.221 0.221 0.28 0.442 0.56 0.664 0.841 0.988 1.253 1.976 2.507 2.949 3.76 0.457 0.546 1.239-0.236 0.796-0.796z">
            </path>
            <path fill="#000" style="fill: var(--color2, teal)"
                d="M33.902 16.841c-0.752-0.944-1.489-1.902-2.241-2.846-0.619-0.782-1.209-1.888-2.109-2.389-0.708-0.383-1.386-0.457-2.006 0.088-0.59 0.516-1.15 1.076-1.711 1.607-0.442 0.428-0.988 0.841-1.386 1.327-0.383 0.457-0.487 1.268-0.457 1.843 0.059 1.327 1.18 1.917 2.359 1.416 1.076-0.457 1.947-1.342 2.935-1.961 0.605-0.383 0.044-1.342-0.56-0.959-0.634 0.398-1.224 0.885-1.843 1.327-0.339 0.251-1.135 0.9-1.563 0.619-0.369-0.251-0.206-0.9-0.118-1.268 0.029-0.103 0.103-0.251 0.118-0.369 0.015-0.192-0.044 0.133-0.088 0.133 0.088-0.015 0.265-0.265 0.339-0.324 0.487-0.457 0.959-0.929 1.445-1.386 0.398-0.383 0.841-0.959 1.327-1.239 0.221-0.133 0.324-0.088 0.605 0.059 0.118 0.059 0.251 0.133 0.354 0.221 0.162 0.118-0.044-0.044 0 0 0.649 0.723 1.209 1.548 1.814 2.315 0.664 0.855 1.342 1.711 2.006 2.566 0.428 0.56 1.209-0.221 0.782-0.782v0z">
            </path>
            <path
                d="M17.784 13.523l3.731 0.339c0 0 1.416 0.059 1.711 0.826s0.221 1.681-0.457 1.932c-0.678 0.251-6.267 0.088-6.651 0-0.369-0.088 0.693-2.669 1.666-3.097z">
            </path>
            <path fill="#000" style="fill: var(--color2, teal)"
                d="M17.784 14.083c0.914 0.088 1.843 0.162 2.758 0.251 0.649 0.059 1.947-0.015 2.212 0.693 0.236 0.634 0.029 1.077-0.59 1.121-0.575 0.044-1.15 0.044-1.725 0.044-1.253 0-2.507-0.015-3.746-0.088-0.088 0-0.206-0.029-0.295-0.015-0.177 0.015-0.103-0.029-0.103 0-0.029 0.088 0.31 0.31 0.31 0.324 0.015 0 0.015-0.133 0.029-0.133 0.074-0.118 0.088-0.31 0.133-0.428 0.251-0.649 0.649-1.519 1.298-1.843 0.634-0.324 0.074-1.268-0.56-0.959-0.737 0.369-1.239 1.209-1.578 1.947-0.236 0.501-0.708 1.43-0.28 1.947 0.295 0.354 0.944 0.28 1.357 0.295 0.855 0.044 1.711 0.059 2.566 0.074 0.811 0.015 1.622 0.015 2.433-0.029 0.619-0.044 1.253-0.088 1.637-0.664 0.501-0.752 0.383-2.035-0.28-2.654-0.501-0.457-1.209-0.575-1.858-0.634-1.239-0.118-2.492-0.221-3.731-0.339-0.693-0.088-0.693 1.018 0.015 1.091z">
            </path>
            <path d="M38.533 26.19h-5.559v-12.151h5.441z"></path>
            <path fill="#000" style="fill: var(--color2, teak)"
                d="M38.533 25.63c-1.858 0-3.716 0-5.574 0 0.192 0.192 0.369 0.369 0.56 0.56 0-4.055 0-8.096 0-12.151-0.192 0.192-0.369 0.369-0.56 0.56 1.814 0 3.628 0 5.441 0 0.708 0 0.708-1.106 0-1.106-1.814 0-3.628 0-5.441 0-0.295 0-0.56 0.251-0.56 0.56 0 4.055 0 8.096 0 12.151 0 0.295 0.251 0.56 0.56 0.56 1.858 0 3.716 0 5.574 0 0.723-0.029 0.723-1.135 0-1.135v0z">
            </path>
            <path
                d="M16.133 16.619l6.267 0.133c0 0 1.091 0.28 1.091 1.283s-0.029 1.504-0.708 1.666c-0.678 0.162-6.326 0.339-6.326 0.339s-0.752-0.664-0.752-1.711c0-1.047 0.428-1.711 0.428-1.711z">
            </path>
            <path fill="#1d1e1d" style="fill: var(--color3, teal)"
                d="M16.133 17.165c1.947 0.044 3.908 0.088 5.854 0.118 0.118 0 0.236 0 0.354 0.015s-0.044 0-0.074-0.015c0.044 0.015 0.118 0.029 0.162 0.059 0.28 0.221 0.457 0.295 0.516 0.693 0.044 0.265 0.059 0.885-0.162 1.091-0.206 0.177-0.826 0.118-1.135 0.147-0.649 0.044-1.298 0.074-1.961 0.103-1.076 0.044-2.138 0.088-3.215 0.118 0.133 0.059 0.265 0.103 0.398 0.162-0.737-0.678-0.737-1.917-0.236-2.758 0.369-0.605-0.59-1.165-0.959-0.56-0.516 0.855-0.664 2.065-0.31 2.994 0.206 0.546 0.575 1.209 1.209 1.253 1.593 0.103 3.288-0.103 4.881-0.206 0.59-0.029 1.357 0 1.888-0.31 0.811-0.472 0.9-1.888 0.59-2.684-0.516-1.342-1.873-1.209-3.038-1.239-1.578-0.029-3.171-0.074-4.748-0.103-0.737 0-0.737 1.106-0.015 1.121z">
            </path>
            <path
                d="M16.693 20.055l5.648-0.251c0 0 1.504 0.133 1.725 0.973s-0.103 1.829-0.575 1.976c-1.445 0.487-3.2 0.472-3.2 0.472h-3.023c0 0-1.607-1.504-0.575-3.171z">
            </path>
            <path fill="#1d1e1d" style="fill: var(--color3, teal)"
                d="M16.693 20.601c1.091-0.044 2.168-0.103 3.259-0.147 0.811-0.029 1.991-0.221 2.64-0.059 0.339 0.088 0.767 0.177 0.944 0.516 0.133 0.251 0.059 0.708-0.029 0.959-0.133 0.354-0.265 0.398-0.619 0.487-0.826 0.221-1.711 0.31-2.581 0.31-1.018 0.015-2.020 0-3.038 0 0.133 0.059 0.265 0.103 0.398 0.162-0.693-0.664-0.973-1.637-0.487-2.507 0.339-0.619-0.605-1.18-0.959-0.56-0.546 0.988-0.531 2.065 0.044 3.053 0.265 0.457 0.56 0.914 1.121 0.959 1.194 0.118 2.492 0.044 3.687-0.029 0.973-0.074 2.595-0.088 3.215-0.973 0.531-0.767 0.619-2.123-0.088-2.802-0.855-0.841-2.065-0.708-3.156-0.664-1.445 0.059-2.905 0.133-4.35 0.192-0.723 0.029-0.723 1.135 0 1.106z">
            </path>
            <path
                d="M17.209 23.137c0 0 6.341-0.31 6.665 0.428s0.177 1.489-0.147 1.814c-0.487 0.487-0.973 0.428-2.713 0.501s-3.406 0-3.731-0.678c-0.531-1.121-0.074-2.065-0.074-2.065z">
            </path>
            <path fill="#1d1e1d" style="fill: var(--color3, teal)"
                d="M17.209 23.683c1.888-0.088 3.982-0.265 5.854 0.118 0.118 0.029 0.339 0.044 0.413 0.118 0.088 0.088 0.044 0.9-0.162 1.106-0.383 0.369-1.194 0.265-1.666 0.28-1.062 0.044-2.227 0.177-3.274-0.088-0.56-0.133-0.723-0.383-0.782-0.973-0.015-0.192 0-0.398 0.029-0.59 0.015-0.044 0.147-0.428 0.059-0.251 0.28-0.649-0.664-1.209-0.959-0.56-0.28 0.619-0.324 1.342-0.162 1.991 0.221 0.855 0.752 1.283 1.593 1.46 1.135 0.236 2.315 0.147 3.465 0.103 0.649-0.029 1.416 0.015 2.006-0.295 1.076-0.56 1.46-2.669 0.206-3.244-1.018-0.457-2.418-0.354-3.51-0.369-1.047-0.015-2.094 0.015-3.141 0.059-0.678 0.059-0.693 1.165 0.029 1.135z">
            </path>
            <path fill="#000" style="fill: var(--color2, teal)"
                d="M44.667 22.341c-2.433 0-4.866 0-7.3 0-0.708 0-0.708 1.106 0 1.106 2.433 0 4.866 0 7.3 0 0.708 0 0.708-1.106 0-1.106v0z">
            </path>
            <path fill="#000" style="fill: var(--color2, teal)"
                d="M36.557 21.029c2.433 0 4.866 0 7.3 0 0.708 0 0.708-1.106 0-1.106-2.433 0-4.866 0-7.3 0-0.708 0-0.708 1.106 0 1.106v0z">
            </path>
            <path fill="#000" style="fill: var(--color2, teal)"
                d="M43.060 17.519c-2.433 0-4.866 0-7.3 0-0.708 0-0.708 1.106 0 1.106 2.433 0 4.866 0 7.3 0 0.708 0 0.708-1.106 0-1.106v0z">
            </path>
        </symbol>
        <symbol id="icon-phone-contact" viewBox="0 0 24 24">
            <path
                d="M6.609 10.781q2.25 4.359 6.609 6.609l2.203-2.203q0.469-0.469 1.031-0.234 1.688 0.563 3.563 0.563 0.422 0 0.703 0.281t0.281 0.703v3.516q0 0.422-0.281 0.703t-0.703 0.281q-7.031 0-12.023-4.992t-4.992-12.023q0-0.422 0.281-0.703t0.703-0.281h3.516q0.422 0 0.703 0.281t0.281 0.703q0 1.875 0.563 3.563 0.188 0.609-0.234 1.031z">
            </path>
        </symbol>
        <symbol id="icon-mail" viewBox="0 0 24 24">
            <path
                d="M12 11.016l8.016-5.016h-16.031zM20.016 18v-9.984l-8.016 4.969-8.016-4.969v9.984h16.031zM20.016 3.984q0.797 0 1.383 0.609t0.586 1.406v12q0 0.797-0.586 1.406t-1.383 0.609h-16.031q-0.797 0-1.383-0.609t-0.586-1.406v-12q0-0.797 0.586-1.406t1.383-0.609h16.031z">
            </path>
        </symbol>
        <symbol id="icon-icon-telegram" viewBox="0 0 32 32">
            <path fill="#000" style="fill: var(--color1, #0088cc)"
                d="M29.333 16c0 7.363-5.97 13.333-13.333 13.333s-13.333-5.97-13.333-13.333 5.97-13.333 13.333-13.333 13.333 5.97 13.333 13.333z">
            </path>
            <path fill="#000" style="fill: var(--color1, #000)" opacity="0.05"
                d="M6.746 15.644c5.437-2.463 11.822-5.136 12.805-5.523 2.168-0.853 3.113 0.019 2.965 1.409-0.182 1.703-1.045 6.66-1.575 10.211-0.311 2.078-1.436 2.715-2.706 1.909-0.963-0.611-4.275-2.78-5.147-3.521-0.594-0.505-1.008-1.072-0.587-1.649 0.123-0.169 0.439-0.509 0.614-0.678 0.879-0.852 0.761-1.035-0.303-0.275-0.127 0.091-0.861 0.623-1.163 0.825-0.74 0.493-1.421 0.52-2.575 0.128-0.944-0.321-1.851-0.568-2.423-0.815-0.79-0.342-1.093-1.483 0.093-2.020z">
            </path>
            <path fill="#000" style="fill: var(--color1, #0088cc)" opacity="0.07"
                d="M7.224 15.727c5.048-2.257 11.256-4.843 12.164-5.209 2.176-0.879 2.977-0.357 2.743 1.341-0.217 1.572-0.989 6.436-1.529 9.697-0.319 1.919-1.249 2.342-2.461 1.558-0.759-0.489-3.815-2.503-4.557-3.089-0.573-0.453-1.167-0.975-0.473-1.732 0.232-0.253 1.513-1.489 2.471-2.409 0.555-0.534 0.357-0.797-0.313-0.339-1.229 0.842-3.239 2.175-3.597 2.417-0.683 0.46-1.325 0.571-2.443 0.219-0.881-0.277-1.731-0.546-2.175-0.719-0.991-0.384-1.004-1.211 0.17-1.735z">
            </path>
            <path fill="#fff" style="fill: var(--color2, #fff)"
                d="M7.702 15.811c4.66-2.050 10.69-4.549 11.523-4.895 2.183-0.905 2.853-0.732 2.519 1.273-0.24 1.441-0.932 6.213-1.484 9.183-0.327 1.761-1.062 1.97-2.217 1.208-0.555-0.367-3.359-2.221-3.967-2.656-0.555-0.397-1.321-0.874-0.361-1.814 0.342-0.335 2.583-2.475 4.329-4.14 0.229-0.219-0.059-0.578-0.323-0.403-2.353 1.561-5.616 3.727-6.031 4.009-0.627 0.426-1.23 0.621-2.311 0.311-0.817-0.235-1.615-0.515-1.926-0.621-1.197-0.411-0.913-0.943 0.249-1.454z">
            </path>
        </symbol>
        <symbol id="icon-icon-viber" viewBox="0 0 32 32">
            <path fill="#fff" style="fill: var(--color2, #fff)"
                d="M16 3.333c-1.759 0-7.113 0-10.073 2.703-1.763 1.756-2.593 4.293-2.593 7.964v2c0 3.671 0.831 6.208 2.614 7.984 0.888 0.81 2.099 1.457 3.579 1.905l0.474 0.143v3.552c0 0.417 0.121 0.417 0.161 0.417 0.082 0 0.213-0.026 0.463-0.247 0.060-0.059 0.5-0.535 2.64-2.933l0.216-0.242 0.323 0.021c0.717 0.045 1.456 0.068 2.197 0.068 1.759 0 7.113 0 10.073-2.703 1.762-1.756 2.593-4.293 2.593-7.963v-2c0-3.671-0.831-6.208-2.614-7.984-2.939-2.683-8.293-2.683-10.053-2.683z">
            </path>
            <path fill="#7e57c2" style="fill: var(--color3, #7e57c2)"
                d="M22.301 19.236c-0.741-0.624-1.083-0.813-2.105-1.427-0.426-0.255-1.075-0.476-1.416-0.476-0.233 0-0.511 0.178-0.682 0.349-0.437 0.437-0.581 0.985-1.347 0.985-0.75 0-2.060-0.763-3-1.75-0.987-0.94-1.75-2.25-1.75-3 0-0.767 0.537-0.92 0.975-1.358 0.171-0.17 0.359-0.449 0.359-0.681 0-0.341-0.221-0.98-0.476-1.406-0.614-1.023-0.802-1.365-1.427-2.105-0.211-0.251-0.452-0.365-0.704-0.366-0.426-0.001-0.985 0.211-1.364 0.493-0.569 0.425-1.165 1.003-1.324 1.723-0.021 0.098-0.034 0.197-0.038 0.295-0.031 0.75 0.264 1.511 0.582 2.156 0.749 1.519 1.739 2.99 2.817 4.303 0.345 0.42 0.72 0.811 1.109 1.188 0.377 0.388 0.768 0.763 1.188 1.109 1.313 1.078 2.784 2.069 4.303 2.817 0.639 0.315 1.391 0.604 2.133 0.583 0.106-0.003 0.212-0.015 0.318-0.039 0.72-0.159 1.298-0.755 1.723-1.324 0.282-0.379 0.493-0.937 0.493-1.364-0.001-0.252-0.115-0.493-0.366-0.704zM22.667 16c-0.368 0-0.667-0.299-0.667-0.667v-0.667c0-3.308-2.692-6-6-6-0.368 0-0.667-0.299-0.667-0.667s0.299-0.667 0.667-0.667c4.043 0 7.333 3.29 7.333 7.333v0.667c0 0.368-0.299 0.667-0.667 0.667zM18.572 14.667c-0.296 0-0.567-0.199-0.645-0.499-0.183-0.701-0.729-1.248-1.427-1.428-0.357-0.093-0.571-0.456-0.479-0.813s0.455-0.57 0.813-0.479c1.165 0.302 2.079 1.215 2.383 2.383 0.093 0.357-0.121 0.72-0.477 0.813-0.057 0.015-0.113 0.022-0.169 0.022z">
            </path>
            <path fill="#7e57c2" style="fill: var(--color3, #7e57c2)"
                d="M20.667 15.333c-0.368 0-0.667-0.299-0.667-0.667 0-2.125-1.663-3.879-3.785-3.991-0.368-0.019-0.65-0.333-0.631-0.701s0.339-0.651 0.701-0.631c2.831 0.149 5.049 2.487 5.049 5.322 0 0.368-0.299 0.667-0.667 0.667z">
            </path>
            <path fill="#7e57c2" style="fill: var(--color3, #7e57c2)"
                d="M16 2.667c-3 0-7.675 0.276-10.523 2.877-2.013 2.005-2.811 4.817-2.811 8.456 0 0.301-0.001 0.637 0.001 1-0.003 0.362-0.001 0.698-0.001 0.999 0 3.639 0.797 6.451 2.811 8.456 1.084 0.99 2.436 1.641 3.856 2.071v3.057c0 1.064 0.699 1.083 0.827 1.083h0.006c0.329-0.001 0.614-0.163 0.899-0.416 0.107-0.095 1.347-1.477 2.695-2.987 0.803 0.051 1.565 0.070 2.239 0.070 0 0 0 0 0 0s0 0 0 0c3 0 7.674-0.277 10.523-2.878 2.013-2.004 2.811-4.817 2.811-8.456 0-0.301 0.001-0.637-0.001-1 0.003-0.363 0.001-0.698 0.001-1 0-3.639-0.797-6.451-2.811-8.456-2.848-2.601-7.522-2.877-10.522-2.877zM27.333 15.767v0.232c0 3.271-0.697 5.499-2.191 7.008-2.588 2.326-7.518 2.326-9.143 2.326-0.495 0-1.297-0.001-2.245-0.067-0.263 0.296-3.088 3.455-3.088 3.455v-3.909c-1.403-0.337-2.789-0.889-3.809-1.805-1.494-1.509-2.191-3.738-2.191-7.009v-0.232c0-0.234-0.001-0.487 0.001-0.782-0.002-0.267-0.002-0.519-0.001-0.753v-0.232c0-3.271 0.697-5.499 2.191-7.008 2.587-2.326 7.518-2.326 9.143-2.326s6.555 0 9.142 2.326c1.495 1.509 2.191 3.737 2.191 7.008v0.232c0 0.234 0.001 0.487-0.001 0.782 0.002 0.267 0.002 0.519 0.002 0.753z">
            </path>
        </symbol>
    </defs>
</svg>