<svg aria-hidden="true" style="position: absolute; width: 0; height: 0; overflow: hidden;" version="1.1"
    xmlns="http://www.w3.org/2000/svg" xmlns:xlink="http://www.w3.org/1999/xlink">
    <defs>
        <symbol id="icon-number1" viewBox="0 0 32 32">
            <path
                d="M16 3c-7.18 0-13 5.82-13 13s5.82 13 13 13 13-5.82 13-13-5.82-13-13-13zM16 27c-6.075 0-11-4.925-11-11s4.925-11 11-11 11 4.925 11 11-4.925 11-11 11zM14.828 12.709c-0.589 0.458-1.134 0.77-1.635 0.934v1.742c0.953-0.314 1.781-0.799 2.484-1.455v7.111h2.047v-10h-1.686c-0.218 0.612-0.622 1.209-1.21 1.668z">
            </path>
        </symbol>
        <symbol id="icon-number0" viewBox="0 0 32 32">
            <path
                d="M16 3c-7.18 0-13 5.82-13 13s5.82 13 13 13 13-5.82 13-13-5.82-13-13-13zM16 27c-6.075 0-11-4.925-11-11s4.925-11 11-11 11 4.925 11 11-4.925 11-11 11zM15.994 10.737c-0.973 0-1.729 0.342-2.272 1.026-0.657 0.83-0.985 2.188-0.985 4.074 0 1.923 0.299 3.26 0.896 4.010s1.385 1.124 2.361 1.124c0.971 0 1.729-0.342 2.271-1.025 0.657-0.829 0.986-2.192 0.986-4.088 0-1.9-0.326-3.261-0.979-4.082-0.547-0.692-1.307-1.039-2.278-1.039zM17.045 18.359c-0.102 0.383-0.243 0.648-0.426 0.797-0.184 0.148-0.393 0.222-0.625 0.222-0.234 0-0.441-0.073-0.622-0.219s-0.331-0.438-0.45-0.878-0.178-1.248-0.178-2.423 0.066-2.012 0.199-2.508c0.1-0.383 0.242-0.648 0.426-0.796 0.183-0.148 0.391-0.222 0.625-0.222 0.232 0 0.439 0.074 0.621 0.222s0.33 0.442 0.449 0.882 0.18 1.248 0.18 2.423-0.066 2.008-0.199 2.5z">
            </path>
        </symbol>
        <symbol id="icon-number9" viewBox="0 0 32 32">
            <path
                d="M16 3c-7.18 0-13 5.82-13 13s5.82 13 13 13 13-5.82 13-13-5.82-13-13-13zM16 27c-6.075 0-11-4.925-11-11s4.925-11 11-11 11 4.925 11 11-4.925 11-11 11zM15.609 11.337c-0.935 0-1.704 0.311-2.309 0.933s-0.905 1.442-0.905 2.458c0 0.976 0.286 1.768 0.857 2.376s1.253 0.913 2.041 0.913c0.725 0 1.328-0.281 1.812-0.842-0.077 1.149-0.255 1.906-0.532 2.271-0.278 0.364-0.614 0.547-1.011 0.547-0.314 0-0.566-0.092-0.758-0.274s-0.31-0.464-0.355-0.843l-1.858 0.205c0.137 0.833 0.446 1.459 0.929 1.877 0.483 0.419 1.117 0.629 1.9 0.629 1.090 0 1.973-0.406 2.652-1.219 0.679-0.812 1.019-2.135 1.019-3.968 0-1.802-0.326-3.096-0.978-3.883s-1.487-1.18-2.504-1.18zM16.555 16.173c-0.252 0.292-0.562 0.438-0.931 0.438-0.382 0-0.701-0.151-0.956-0.455s-0.382-0.779-0.382-1.426c0-0.638 0.117-1.098 0.351-1.378s0.529-0.42 0.885-0.42c0.373 0 0.701 0.171 0.986 0.513 0.284 0.342 0.427 0.823 0.427 1.443 0 0.565-0.126 0.993-0.38 1.285z">
            </path>
        </symbol>
        <symbol id="icon-number8" viewBox="0 0 32 32">
            <path
                d="M16 3c-7.18 0-13 5.82-13 13s5.82 13 13 13 13-5.82 13-13-5.82-13-13-13zM16 27c-6.075 0-11-4.925-11-11s4.925-11 11-11 11 4.925 11 11-4.925 11-11 11zM17.206 15.393c0.437-0.191 0.776-0.468 1.018-0.831s0.362-0.776 0.362-1.241c0-0.748-0.264-1.365-0.789-1.853-0.527-0.487-1.267-0.731-2.219-0.731-0.962 0-1.703 0.244-2.225 0.731s-0.783 1.105-0.783 1.853c0 0.438 0.113 0.84 0.338 1.207 0.227 0.367 0.587 0.655 1.084 0.865-0.578 0.247-1.001 0.597-1.27 1.051s-0.402 0.953-0.402 1.496c0 0.986 0.357 1.763 1.072 2.328 0.605 0.479 1.364 0.719 2.275 0.719 0.979 0 1.764-0.29 2.354-0.87 0.59-0.579 0.885-1.332 0.885-2.259 0-0.562-0.145-1.057-0.434-1.486s-0.71-0.755-1.266-0.979zM14.719 12.589c0.219-0.219 0.512-0.328 0.881-0.328 0.355 0 0.641 0.108 0.857 0.325s0.324 0.505 0.324 0.865c0 0.383-0.109 0.683-0.328 0.899s-0.51 0.325-0.874 0.325c-0.36 0-0.647-0.107-0.864-0.321-0.216-0.214-0.324-0.513-0.324-0.896 0-0.36 0.109-0.65 0.328-0.869zM16.618 19.013c-0.261 0.285-0.589 0.428-0.985 0.428-0.405 0-0.744-0.147-1.016-0.444s-0.406-0.711-0.406-1.24c0-0.379 0.115-0.731 0.346-1.056s0.58-0.486 1.049-0.486c0.406 0 0.741 0.143 1.006 0.428 0.264 0.286 0.396 0.664 0.396 1.133 0 0.538-0.13 0.951-0.39 1.237z">
            </path>
        </symbol>
        <symbol id="icon-number7" viewBox="0 0 32 32">
            <path
                d="M16 3c-7.18 0-13 5.82-13 13s5.82 13 13 13 13-5.82 13-13-5.82-13-13-13zM16 27c-6.075 0-11-4.925-11-11s4.925-11 11-11 11 4.925 11 11-4.925 11-11 11zM12.744 13.291h4.371c-0.902 1.136-1.623 2.425-2.162 3.867-0.54 1.441-0.826 2.856-0.857 4.243h1.852c-0.005-0.885 0.14-1.889 0.434-3.012 0.293-1.124 0.721-2.185 1.28-3.184 0.56-0.998 1.11-1.764 1.653-2.297v-1.398h-6.57v1.781z">
            </path>
        </symbol>
        <symbol id="icon-number6" viewBox="0 0 32 32">
            <path
                d="M16 3c-7.18 0-13 5.82-13 13s5.82 13 13 13 13-5.82 13-13-5.82-13-13-13zM16 27c-6.075 0-11-4.925-11-11s4.925-11 11-11 11 4.925 11 11-4.925 11-11 11zM16.52 14.685c-0.711 0-1.305 0.282-1.784 0.848 0.073-1.151 0.249-1.908 0.529-2.271s0.622-0.545 1.028-0.545c0.305 0 0.553 0.091 0.744 0.273s0.31 0.463 0.355 0.845l1.859-0.205c-0.137-0.81-0.455-1.427-0.954-1.853s-1.129-0.638-1.89-0.638c-1.085 0-1.967 0.405-2.646 1.217-0.679 0.811-1.018 2.135-1.018 3.972 0 1.791 0.325 3.080 0.978 3.866 0.651 0.786 1.483 1.18 2.496 1.18 0.944 0 1.717-0.311 2.318-0.931 0.603-0.621 0.903-1.445 0.903-2.472 0-0.968-0.287-1.757-0.858-2.368-0.571-0.613-1.258-0.918-2.060-0.918zM17.201 19.36c-0.236 0.278-0.533 0.417-0.888 0.417-0.368 0-0.696-0.17-0.983-0.51s-0.43-0.823-0.43-1.449c0-0.566 0.127-0.995 0.382-1.285s0.567-0.436 0.936-0.436c0.382 0 0.701 0.152 0.956 0.456s0.383 0.782 0.383 1.436c0 0.636-0.119 1.093-0.356 1.371z">
            </path>
        </symbol>
        <symbol id="icon-number5" viewBox="0 0 32 32">
            <path
                d="M16 3c-7.18 0-13 5.82-13 13s5.82 13 13 13 13-5.82 13-13-5.82-13-13-13zM16 27c-6.075 0-11-4.925-11-11s4.925-11 11-11 11 4.925 11 11-4.925 11-11 11zM16.259 13.889c-0.447 0-0.886 0.107-1.313 0.321l0.305-1.704h3.622v-1.797h-5.078l-0.985 5.219 1.557 0.227c0.438-0.49 0.932-0.734 1.484-0.734 0.442 0 0.801 0.154 1.077 0.462s0.414 0.77 0.414 1.386c0 0.657-0.14 1.148-0.417 1.475s-0.618 0.489-1.020 0.489c-0.351 0-0.661-0.126-0.93-0.379-0.27-0.252-0.431-0.595-0.486-1.027l-1.913 0.198c0.114 0.839 0.462 1.506 1.046 2.003 0.584 0.496 1.338 0.744 2.264 0.744 1.158 0 2.062-0.441 2.715-1.327 0.479-0.647 0.717-1.384 0.717-2.21 0-0.989-0.296-1.794-0.889-2.415-0.595-0.621-1.318-0.931-2.17-0.931z">
            </path>
        </symbol>
        <symbol id="icon-number4" viewBox="0 0 32 32">
            <path
                d="M16 3c-7.18 0-13 5.82-13 13s5.82 13 13 13 13-5.82 13-13-5.82-13-13-13zM16 27c-6.075 0-11-4.925-11-11s4.925-11 11-11 11 4.925 11 11-4.925 11-11 11zM18.176 11.337h-1.613l-4.354 6.374v1.674h4.109v2.015h1.858v-2.016h1.243v-1.68h-1.243v-6.367zM16.317 17.705h-2.309l2.309-3.434v3.434z">
            </path>
        </symbol>
        <symbol id="icon-number3" viewBox="0 0 32 32">
            <path
                d="M16 3c-7.18 0-13 5.82-13 13s5.82 13 13 13 13-5.82 13-13-5.82-13-13-13zM16 27c-6.075 0-11-4.925-11-11s4.925-11 11-11 11 4.925 11 11-4.925 11-11 11zM17.248 15.219c0.963-0.525 1.443-1.228 1.443-2.108 0-0.621-0.234-1.177-0.705-1.67-0.571-0.602-1.33-0.903-2.275-0.903-0.553 0-1.052 0.104-1.497 0.311s-0.792 0.493-1.042 0.855c-0.248 0.362-0.435 0.847-0.559 1.454l1.773 0.302c0.051-0.439 0.193-0.772 0.426-1.001s0.516-0.343 0.845-0.343c0.334 0 0.603 0.101 0.804 0.301 0.201 0.201 0.302 0.471 0.302 0.809 0 0.398-0.138 0.716-0.413 0.957-0.273 0.24-0.673 0.353-1.195 0.339l-0.213 1.565c0.344-0.096 0.638-0.144 0.885-0.144 0.374 0 0.691 0.141 0.952 0.423s0.391 0.665 0.391 1.147c0 0.509-0.136 0.914-0.407 1.214s-0.607 0.45-1.004 0.45c-0.37 0-0.686-0.125-0.945-0.375-0.261-0.25-0.42-0.612-0.479-1.086l-1.859 0.226c0.096 0.843 0.442 1.525 1.040 2.047s1.35 0.782 2.258 0.782c0.957 0 1.758-0.309 2.401-0.929s0.965-1.368 0.965-2.247c0-0.605-0.172-1.122-0.515-1.55-0.346-0.427-0.804-0.703-1.377-0.826z">
            </path>
        </symbol>
        <symbol id="icon-number2" viewBox="0 0 32 32">
            <path
                d="M16 3c-7.18 0-13 5.82-13 13s5.82 13 13 13 13-5.82 13-13-5.82-13-13-13zM16 27c-6.075 0-11-4.925-11-11s4.925-11 11-11 11 4.925 11 11-4.925 11-11 11zM17.564 17.777c0.607-0.556 1.027-0.982 1.26-1.278 0.351-0.447 0.607-0.875 0.77-1.282 0.161-0.408 0.242-0.838 0.242-1.289 0-0.793-0.283-1.457-0.848-1.99s-1.342-0.8-2.331-0.8c-0.902 0-1.654 0.23-2.256 0.69s-0.96 1.218-1.073 2.275l1.914 0.191c0.036-0.56 0.173-0.96 0.41-1.201s0.555-0.361 0.956-0.361c0.405 0 0.723 0.115 0.952 0.345 0.23 0.23 0.346 0.56 0.346 0.988 0 0.387-0.133 0.779-0.396 1.176-0.195 0.287-0.727 0.834-1.592 1.64-1.076 0.998-1.796 1.799-2.16 2.403s-0.584 1.242-0.656 1.917h6.734v-1.781h-3.819c0.101-0.173 0.231-0.351 0.394-0.534 0.16-0.183 0.545-0.552 1.153-1.109z">
            </path>
        </symbol>
    </defs>
</svg>